<?xml version="1.0" encoding="UTF-8"?><svg id="a" xmlns="http://www.w3.org/2000/svg" xmlns:xlink="http://www.w3.org/1999/xlink" viewBox="0 0 2168.06 333.78"><defs><style>.c{fill:url(#b);}.d{fill:#fff;}</style><linearGradient id="b" x1="2167.33" y1=".17" x2="2168.06" y2=".17" gradientTransform="matrix(1, 0, 0, 1, 0, 0)" gradientUnits="userSpaceOnUse"><stop offset=".52" stop-color="#acdcd4"/><stop offset=".53" stop-color="#abdbd3"/><stop offset=".84" stop-color="#7fc6be"/><stop offset="1" stop-color="#6ebeb7"/></linearGradient></defs><path class="c" d="M2168.06,0c-.25,.08-.5,.18-.72,.34,.24-.11,.48-.23,.72-.34Z"/><path class="d" d="M581.1,322.81c-3.23-2.5-5.79-5.93-7.71-10.29l-8.53-19.35-62.34-146.72h-5.29l-54.11,128.22c-3.89,9.2-6.1,14.47-6.66,15.83-5.68,14.42-10.53,23.87-14.56,28.36-4,4.46-10.08,7.32-18.24,8.61-7.43-.15-12.55-1.22-15.3-3.24-2.98-2.18-4.81-5.52-5.49-10.01-.69-4.5-1.03-14.01-1.03-28.54v-90.59c0-12.17,.3-20.78,.91-25.87-2.7-1.33-7.47-2.69-14.23-2.69s-11.79,1.44-14.45,2.81c.56,5.03,.85,13.61,.85,25.76v90.59c0,15.44-.41,25.27-1.24,29.5-.82,4.22-2.77,7.34-5.83,9.33-3.07,2-8.59,3-16.55,3h-5.49v6.27h133.04v-6.27c-5.95,0-10.83-1.43-14.63-4.29-3.8-2.86-5.7-7.06-5.7-12.6,0-5.18,3.57-16.26,10.71-33.24l4.89-11.71h70.81l14.26,34.19c4.21,9.9,6.32,15.85,6.32,17.85,0,3.91-1.58,6.52-4.74,7.84-3.16,1.32-9.23,1.97-18.2,1.97v6.27h73.07v-6.27c-6.46-.63-11.31-2.2-14.53-4.7Zm-124.43-63.28l32.87-78.74,32.83,78.74h-65.7Z"/><path class="d" d="M423.13,121.78c-.01-1.38-.53-2.66-1.55-3.47h0c-2.09-1.61-5.21-.85-7.14,1.68-.97,1.28-1.43,2.77-1.39,4.14,0,.44,.07,.86,.17,1.27-1.27,1.61-5.49,5.56-16.55,5.56s-21.24-18.26-24.84-25.71h.33l.21-.13c.07-.04,.13-.08,.19-.12l.79-.47-.26-.75c.1-.06,.19-.11,.29-.16,1.67-.92,2.54-1.54,2.64-4.55v-.09c-.16-3.84-3.12-6.8-4.92-8.26-.85-.71-1.5-1.12-1.58-1.17l-.47-.29-.47,.29c-.24,.15-5.97,3.77-6.29,9.12v.13c.11,2.06,.84,3.22,2.3,4.33,.19,.16,.4,.31,.63,.47l-.26,.74,.21,.13v.03l1,.64c-2.46,7.25-10.07,26.16-22.35,26.16s-16.67-4.24-18.11-6.03c.1-.39,.15-.79,.16-1.21,.04-1.37-.42-2.86-1.39-4.14-1.93-2.54-5.05-3.29-7.14-1.69h0c-1.02,.82-1.54,2.09-1.55,3.47-.04,1.37,.42,2.86,1.39,4.14,1.39,1.83,3.39,2.71,5.16,2.49l10.2,22.98,.77,1.95s.04-.06,.06-.09l.04,.09c0-.07,.03-.15,.04-.22,1.95-2.96,7.1-5.71,35.36-6.37,28.17-.66,34.56,6.2,34.95,6.66,0,.01,0,.02,0,.04h.02l12.38-25.05c1.87,.43,4.08-.45,5.58-2.42,.98-1.28,1.43-2.77,1.39-4.14Zm-104.47,2.9c-1.27-1.67-1.35-3.86-.15-4.82,1.2-.92,3.21-.31,4.48,1.37,1.27,1.67,1.35,3.86,.17,4.8l-.02,.02c-1.2,.92-3.21,.31-4.49-1.37Zm45.73-25.77c.25-3.42,3.61-6.15,4.87-7.06,.19,.14,.44,.32,.71,.54,1.53,1.28,3.82,3.64,3.96,6.48-.06,1.87-.28,1.98-1.59,2.71-.32,.17-.67,.37-1.08,.62l-.7,.44,.11,.35h-2.96l.06-.18-.21-.13v-.03l-.69-.44c-.48-.3-.88-.56-1.2-.81-.9-.74-1.19-1.39-1.26-2.48Zm.52,29.02c0-.26,.01-.53,.02-.79,.01-.31,.03-.63,.05-.93v-.07c.09-1.21,.25-2.37,.45-3.43,.82-3.25,2.17-5.38,3.71-5.38,2.5,0,4.53,5.66,4.53,12.64,0,1.64-.12,3.2-.32,4.64-.75,4-2.24,6.74-3.96,6.74-2.49,0-4.49-5.66-4.49-12.64,0-.26,0-.52,.01-.78Zm22.02,11.23c-.51,.53-1.16,.82-1.82,.89l-.61,.08-7.05,.58,.58-7.03v-.24c.15-.46,.39-.9,.75-1.27,1.18-1.21,3.09-1.21,4.27,0,.52,.53,.78,1.19,.84,1.88h0c.04,.42,.02,.85-.11,1.26,1.05-.35,2.24-.1,3.07,.75,.47,.48,.75,1.08,.84,1.71-.13,.51-.38,1-.77,1.4Zm-32.3,.96l-.6-.08c-.67-.07-1.32-.36-1.82-.89-.67-.69-.94-1.63-.84-2.54,.12-.2,.26-.39,.43-.57,.83-.85,2.03-1.1,3.08-.75-.34-1.07-.1-2.29,.74-3.14,1.18-1.21,3.09-1.21,4.27,0,.54,.55,.83,1.26,.88,1.98l.03,.8,.47,5.73-6.63-.55Zm61.14-14.02l-.02-.02c-1.17-.93-1.1-3.13,.17-4.8,1.28-1.67,3.29-2.29,4.48-1.37,1.2,.95,1.12,3.15-.15,4.82-1.27,1.68-3.29,2.29-4.49,1.37Z"/><path class="d" d="M408.08,162.69c.01-.07,.03-.13,.04-.19-.54-5.45-15.49-9.89-34.6-10.45-.04,0-.07,0-.1,0-.31,0-.63-.02-.95-.02-.37,0-.75-.02-1.12-.02-.08,0-.16,0-.23,0-.52,0-1.04-.01-1.57-.01h-.05s-.08,0-.12,0c-5.62,0-10.95,.33-15.77,.93-13.24,1.65-22.55,5.31-22.97,9.58,.02,.18,.05,.36,.1,.53,.17-.64,.56-1.26,1.11-1.86-.42,.54-.71,1.1-.88,1.66-.04,.09-.07,.18-.1,.27-.02,.07-.05,.13-.07,.2-.08,.26-.14,.52-.16,.78,.3,3.24,4.77,6.15,11.81,8.25,.71,.21,1.45,.42,2.22,.61-.37-.18-.71-.36-1.04-.55,.33,.19,.68,.37,1.04,.55,1.54,.39,3.18,.75,4.91,1.07,0,0,.94-.08,1.01-.83,.07-.75-1.11-1.05-1.11-1.05-5.49-1.39-8.92-3.36-8.95-5.53,.08-.14,.15-.28,.24-.39,1.23-1.58,3.73-3,7.13-4.14,5.28-1.57,12.96-2.17,21.5-2.17,11.26,0,21.01,1.33,25.77,3.83,.15,.08,.83,.48,.97,.57,.88,.56,1.58,1.24,2.09,1.94,.02,.11,.03,.22,.03,.34,0,2.22-3.53,4.21-9.18,5.62,0,0-.89-.03-.82,.9,.07,.93,.8,.96,.8,.96,2.06-.38,3.99-.81,5.78-1.29,.34-.17,.65-.35,.96-.53-.3,.18-.62,.36-.96,.53,.72-.19,1.41-.39,2.08-.6,2.59-.81,4.81-1.73,6.58-2.73,2.91-1.62,4.63-3.47,4.81-5.44,0-.06-.02-.13-.03-.19,0-.07,.03-.13,.03-.19-.03-.31-.1-.61-.21-.91Zm-10.44,8.17c.12-.11,.23-.22,.34-.33-.1,.11-.22,.22-.34,.33Zm-54.94,.98c.2,.13,.42,.26,.63,.39-.22-.13-.44-.26-.63-.39Zm-1.09-.85c-.13-.12-.26-.23-.38-.35,.12,.12,.25,.23,.38,.35Zm.78,.62c-.17-.12-.33-.24-.48-.36,.15,.12,.32,.24,.48,.36Zm-1.62-5.68c-.07,.09-.13,.19-.2,.29h0c.06-.11,.12-.23,.19-.32,1.23-1.58,3.73-3,7.13-4.14,.94-.28,1.97-.52,3.05-.73-1.08,.24-2.11,.49-3.05,.77-3.4,1.15-5.89,2.57-7.13,4.14Zm54.39-2.48c-.88-.46-1.93-.9-3.13-1.3,1.2,.38,2.25,.8,3.13,1.27,.15,.08,.83,.48,.97,.57,.33,.21,.62,.44,.91,.68-.28-.22-.58-.43-.91-.64-.14-.09-.82-.49-.97-.57Zm4.01,4.91h0Zm-.68,1.57c-.08,.11-.17,.21-.26,.32,.09-.11,.18-.21,.26-.32Zm.61-1.25c-.03,.11-.07,.21-.11,.32,.04-.11,.08-.21,.11-.32Zm-.24,.63c-.05,.11-.12,.21-.18,.32,.07-.11,.13-.21,.18-.32Zm-1.49,1.81c-.13,.11-.28,.22-.43,.34,.15-.11,.3-.22,.43-.34Zm-.73,.57c-.18,.12-.37,.25-.56,.37,.19-.12,.39-.24,.56-.37Z"/><path class="d" d="M329.59,283.3c0-13.37-5.13-24.51-15.38-33.43-10.26-8.91-25.95-14.14-47.08-15.68,.13-.02,.25-.04,.37-.06h.22c17.4-2.56,30.45-7.43,39.14-14.64,8.75-7.26,13.12-16.86,13.12-28.84,0-29.02-25.48-43.53-76.44-43.53h-.07c-.09,0-.17,0-.26,0l-9.62,.3h0l-7.92,.26-17.33,.54-30.66,.82v6.27h3.59c9.48,0,15.62,.82,18.42,2.45,2.81,1.63,4.64,4.63,5.52,8.99,.87,4.36,1.31,14.03,1.31,29.02v89.91c0,3.38-.02,6.47-.06,9.31-.11,7.71-.36,13.46-.76,17.22-.12,1.19-.27,2.18-.42,2.97-.62,3.17-1.87,5.71-3.75,7.62-.63,.64-1.32,1.21-2.09,1.71-1.84,1.2-4.59,2.03-8.21,2.51-.52,.07-1.05,.13-1.6,.18-5.23-.76-9.24-2.23-12.04-4.39-3.23-2.5-5.8-5.93-7.71-10.29l-8.53-19.35-62.34-146.72h-5.29l-54.12,128.22c-3.88,9.2-6.1,14.47-6.66,15.83-5.68,14.42-10.53,23.87-14.56,28.36-4.03,4.49-10.16,7.37-18.4,8.64v6.27H55.35v-6.27c-5.95,0-10.83-1.43-14.63-4.29-3.8-2.86-5.7-7.06-5.7-12.6,0-5.18,3.57-16.26,10.71-33.24l4.89-11.71H121.43l14.26,34.19c4.21,9.9,6.32,15.85,6.32,17.85,0,3.91-1.58,6.52-4.74,7.84-3.16,1.32-9.23,1.97-18.2,1.97v6.27H248.83c18.22,0,32.75-1.3,43.61-3.88,10.85-2.59,19.76-8.1,26.72-16.51,6.96-8.41,10.44-18.44,10.44-30.08h0Zm-276.41-23.77l32.86-78.74,32.83,78.74H53.18Zm180.27-105.45c3.75-.27,7.42-.41,10.99-.41,8.58,0,15.59,.56,21.03,1.68,3.24,.67,5.93,1.54,8.05,2.61,5.68,2.86,9.93,6.93,12.77,12.19,2.84,5.27,4.26,12.72,4.26,22.34,0,13.81-3.62,23.8-10.85,29.97-7.23,6.18-20.74,9.26-40.52,9.26-1.51,0-3.38-.04-5.58-.13h0c-.05,0-.1,0-.15,0v-77.52Zm0,84.19c3.66-.18,7.14-.27,10.44-.27,20.88,0,35.46,3.61,43.74,10.83,8.29,7.22,12.43,18.46,12.43,33.71,0,14.89-3.67,26.07-10.99,33.51-7.33,7.45-18.31,11.17-32.96,11.17-8.24,0-13.76-1.22-16.55-3.68-2.79-2.45-4.51-6.04-5.15-10.76-.05-.35-.09-.74-.14-1.16,0-.05-.01-.1-.01-.15-.04-.37-.07-.77-.11-1.2,0-.08-.01-.17-.02-.26-.03-.43-.07-.89-.1-1.38,0-.07,0-.13-.01-.2-.11-1.73-.2-3.79-.28-6.16,0-.04,0-.08,0-.12-.02-.76-.05-1.56-.07-2.38,0-.05,0-.1,0-.15-.02-.87-.04-1.76-.06-2.7h0c-.1-4.87-.15-10.7-.15-17.51v-41.14Z"/></svg>