<?xml version="1.0" encoding="utf-8"?>
<!-- Generator: Adobe Illustrator 26.1.0, SVG Export Plug-In . SVG Version: 6.00 Build 0)  -->
<svg version="1.1" id="Layer_1" xmlns="http://www.w3.org/2000/svg" xmlns:xlink="http://www.w3.org/1999/xlink" x="0px" y="0px"
	 viewBox="0 0 614.9 276.2" style="enable-background:new 0 0 614.9 276.2;" xml:space="preserve">
<style type="text/css">
	.st0{fill:#4F4F4F;}
	.st1{fill:none;}
	.st2{fill:#636363;}
	.st3{fill:#FFFFFF;}
	.st4{fill:url(#SVGID_1_);}
	.st5{fill:url(#SVGID_00000104699991470527086030000013389617470193232774_);}
	.st6{opacity:0.2;}
	.st7{fill:#594A42;}
	.st8{fill:url(#SVGID_00000054972623873973225450000002785841164236359850_);}
	.st9{fill:url(#SVGID_00000147925330893179799210000010727248740444201876_);fill-opacity:0.2;}
	.st10{fill:url(#SVGID_00000146482419424034598160000013387304111933521085_);}
	.st11{fill:url(#SVGID_00000163774588940618696700000006756674920077707163_);}
	.st12{fill:url(#SVGID_00000151513207809448971420000010851667886027169468_);}
	.st13{fill:url(#SVGID_00000168813254627088455360000008394775871761182599_);}
	.st14{fill:#F6ECD2;fill-opacity:0.3;}
	.st15{fill:url(#SVGID_00000052815106717916498480000009582927479537418373_);}
	.st16{fill:#5B4A23;fill-opacity:0.2;}
	.st17{fill:url(#SVGID_00000062185021830652248120000017573466518710974386_);}
	.st18{fill:url(#SVGID_00000012456486130475337870000014434952611944770219_);}
	.st19{fill:url(#SVGID_00000069356609097606578130000012089220025760098442_);}
	.st20{fill:url(#SVGID_00000041270563863746720790000018177368917139946640_);}
	.st21{fill:url(#SVGID_00000021095189334458874890000017551778554577986181_);}
	.st22{fill:url(#SVGID_00000008131994249868470970000006254977855988694696_);}
	.st23{fill:url(#SVGID_00000157307447910391700140000000502441800632576440_);}
	.st24{fill:url(#SVGID_00000094582728171221161070000009155886301968413076_);}
	.st25{fill:url(#SVGID_00000146475185114763000180000016806513355352231831_);}
	.st26{fill:#F1E5C4;}
	.st27{fill:url(#SVGID_00000133496860150350491680000011577587466335799216_);fill-opacity:0.2;}
	.st28{fill:#F1F2F2;fill-opacity:0.2;}
	.st29{fill:#F1F2F2;}
	.st30{fill:url(#SVGID_00000124880703171373039720000017801291544263852222_);}
	.st31{fill:url(#SVGID_00000121263390516408658070000009543720077737427618_);}
	.st32{fill:url(#SVGID_00000042726036276340184260000008792541372301934769_);}
	.st33{fill:url(#SVGID_00000142142999884646656970000008636407811380878234_);}
	.st34{fill:url(#SVGID_00000181049759677013266570000006201286494250843789_);}
	.st35{fill:url(#SVGID_00000018947579271239563700000000438316468351953825_);}
	.st36{fill:url(#SVGID_00000033342495477189694460000002946937490805536443_);}
	.st37{fill:url(#SVGID_00000062184035180707438120000014012109690952906624_);}
	.st38{fill:url(#SVGID_00000167379655650816617280000003412034716242480782_);}
	.st39{fill:url(#SVGID_00000010312442100162871490000002456688243994859695_);}
	.st40{fill:url(#SVGID_00000019663756274616839340000018425931310864150415_);}
	.st41{fill:url(#SVGID_00000163765299934156774760000010101658660388217234_);}
</style>
<g>
	<path class="st0" d="M324.7,155.4C315,147,300.1,142,280,140.5c16.7-2.4,29.2-7.1,37.5-13.9c8.3-6.9,12.4-16,12.4-27.3
		c0-27.5-24.2-41.3-72.5-41.3l-33.1,1l-29.1,0.8v5.9h3.4c9,0,14.8,0.8,17.5,2.3c2.7,1.5,4.4,4.4,5.2,8.5c0.8,4.1,1.2,13.3,1.2,27.5
		v85.3c0,14.6-0.4,24-1.2,28c-0.8,4-2.6,7-5.5,8.8c-2,1.3-5.1,2.1-9.3,2.6c-5-0.7-8.8-2.1-11.4-4.2c-3.1-2.4-5.5-5.6-7.3-9.8
		l-8.1-18.3L120.6,57.3h-5L64.3,178.9c-3.7,8.7-5.8,13.7-6.3,15c-5.4,13.7-10,22.6-13.8,26.9c-3.8,4.3-9.6,7-17.5,8.2v5.9h52.5v-5.9
		c-5.6,0-10.3-1.4-13.9-4.1c-3.6-2.7-5.4-6.7-5.4-12c0-4.9,3.4-15.4,10.2-31.5l4.6-11.1h67.2l13.5,32.4c4,9.4,6,15,6,16.9
		c0,3.7-1.5,6.2-4.5,7.4c-3,1.2-8.8,1.9-17.3,1.9v5.9h53.8h15.5h53.8c17.3,0,31.1-1.2,41.4-3.7c10.3-2.5,18.7-7.7,25.3-15.7
		c6.6-8,9.9-17.5,9.9-28.5C339.3,174.4,334.4,163.9,324.7,155.4z M77.1,164.6l31.2-74.7l31.1,74.7H77.1z M248.1,64.6
		c3.6-0.3,7-0.4,10.4-0.4c13,0,22.2,1.4,27.6,4.1c5.4,2.7,9.4,6.6,12.1,11.6c2.7,5,4,12.1,4,21.2c0,13.1-3.4,22.6-10.3,28.4
		c-6.9,5.9-19.7,8.8-38.4,8.8c-1.5,0-3.3,0-5.5-0.1V64.6z M300.8,218.2c-6.9,7.1-17.4,10.6-31.3,10.6c-7.8,0-13-1.2-15.7-3.5
		c-2.7-2.3-4.3-5.7-4.9-10.2c-0.6-4.5-0.9-15-0.9-31.7v-39c3.5-0.2,6.8-0.3,9.9-0.3c19.8,0,33.6,3.4,41.5,10.3
		c7.9,6.8,11.8,17.5,11.8,32C311.3,200.5,307.8,211.1,300.8,218.2z"/>
	<path class="st0" d="M591.6,229.1c-6.1-0.6-10.7-2.1-13.8-4.5c-3.1-2.4-5.5-5.6-7.3-9.8l-8.1-18.3L503.3,57.3h-5l-51.3,121.6
		c-3.7,8.7-5.8,13.7-6.3,15c-5.4,13.7-10,22.6-13.8,26.9c-3.8,4.2-9.6,6.9-17.3,8.2c-7-0.1-11.9-1.2-14.5-3.1
		c-2.8-2.1-4.6-5.2-5.2-9.5c-0.7-4.3-1-13.3-1-27.1v-85.9c0-11.5,0.2-18.6,0.7-23.4c-2.6-1.3-7.1-3.8-15.1-3.6
		c-8.3,0.1-11.6,1.5-14.3,2.7c0.5,4.8,3.2,12.9,3.2,24.4v85.9c0,14.6-0.4,24-1.2,28c-0.8,4-2.6,7-5.5,8.8c-2.9,1.9-8.1,2.8-15.7,2.8
		h-5.2v5.9h73.7h7.1h45.4v-5.9c-5.6,0-10.3-1.4-13.9-4.1c-3.6-2.7-5.4-6.7-5.4-12c0-4.9,3.4-15.4,10.2-31.5l4.6-11.1h67.2l13.5,32.4
		c4,9.4,6,15,6,16.9c0,3.7-1.5,6.2-4.5,7.4c-3,1.2-8.8,1.9-17.3,1.9v5.9h66.9v-5.9H591.6z M459.8,164.6L491,89.9l31.1,74.7H459.8z"
		/>
	<path class="st1" d="M299.5,154.4c-7.9-6.8-21.7-10.3-41.5-10.3c-3.1,0-6.4,0.1-9.9,0.3v39c0,16.6,0.3,27.2,0.9,31.7
		c0.6,4.5,2.2,7.9,4.9,10.2c2.6,2.3,7.9,3.5,15.7,3.5c13.9,0,24.3-3.5,31.3-10.6c6.9-7.1,10.4-17.7,10.4-31.8
		C311.3,171.9,307.3,161.3,299.5,154.4z"/>
	<polygon class="st2" points="591.6,229.1 589.2,229.1 589.2,235 591.6,234.3 	"/>
</g>
<path class="st3" d="M575.5,224.6c-3.1-2.4-5.5-5.6-7.3-9.8l-8.1-18.3L500.9,57.3h-5l-51.3,121.6c-3.7,8.7-5.8,13.7-6.3,15
	c-5.4,13.7-10,22.6-13.8,26.9c-3.8,4.2-9.6,6.9-17.3,8.2c-7-0.1-11.9-1.2-14.5-3.1c-2.8-2.1-4.6-5.2-5.2-9.5c-0.7-4.3-1-13.3-1-27.1
	v-85.9c0-11.5,0.3-19.7,0.9-24.5c-2.6-1.3-7.1-2.6-13.5-2.6c-6.6,0-11.2,1.4-13.7,2.7c0.5,4.8,0.8,12.9,0.8,24.4v85.9
	c0,14.6-0.4,24-1.2,28c-0.8,4-2.6,7-5.5,8.8c-2.9,1.9-8.1,2.8-15.7,2.8h-5.2v5.9H407h7.1h45.4v-5.9c-5.6,0-10.3-1.4-13.9-4.1
	c-3.6-2.7-5.4-6.7-5.4-12c0-4.9,3.4-15.4,10.2-31.5l4.6-11.1h67.2l13.5,32.4c4,9.4,6,15,6,16.9c0,3.7-1.5,6.2-4.5,7.4
	c-3,1.2-8.8,1.9-17.3,1.9v5.9h69.3v-5.9C583.1,228.5,578.5,227,575.5,224.6z M457.4,164.6l31.2-74.7l31.1,74.7H457.4z"/>
<path class="st3" d="M322.3,155.4c-9.7-8.5-24.6-13.4-44.7-14.9c16.7-2.4,29.2-7.1,37.4-13.9c8.3-6.9,12.4-16,12.4-27.3
	c0-27.5-24.2-41.3-72.5-41.3l-33.1,1l-29.1,0.8v5.9h3.4c9,0,14.8,0.8,17.5,2.3c2.7,1.5,4.4,4.4,5.2,8.5c0.8,4.1,1.2,13.3,1.2,27.5
	v85.3c0,14.6-0.4,24-1.2,28c-0.8,4-2.6,7-5.5,8.8c-2,1.3-5.1,2.1-9.3,2.6c-5-0.7-8.8-2.1-11.4-4.2c-3.1-2.4-5.5-5.6-7.3-9.8
	l-8.1-18.3L118.2,57.3h-5L61.9,178.9c-3.7,8.7-5.8,13.7-6.3,15c-5.4,13.7-10,22.6-13.8,26.9c-3.8,4.3-9.6,7-17.5,8.2v5.9h52.5v-5.9
	c-5.6,0-10.3-1.4-13.9-4.1c-3.6-2.7-5.4-6.7-5.4-12c0-4.9,3.4-15.4,10.2-31.5l4.6-11.1h67.2l13.5,32.4c4,9.4,6,15,6,16.9
	c0,3.7-1.5,6.2-4.5,7.4c-3,1.2-8.8,1.9-17.3,1.9v5.9H191h15.5h53.8c17.3,0,31.1-1.2,41.4-3.7c10.3-2.5,18.7-7.7,25.3-15.7
	c6.6-8,9.9-17.5,9.9-28.5C336.9,174.4,332.1,163.9,322.3,155.4z M74.8,164.6l31.2-74.7l31.1,74.7H74.8z M245.7,64.6
	c3.6-0.3,7-0.4,10.4-0.4c13,0,22.2,1.4,27.6,4.1c5.4,2.7,9.4,6.6,12.1,11.6c2.7,5,4,12.1,4,21.2c0,13.1-3.4,22.6-10.3,28.4
	c-6.9,5.9-19.7,8.8-38.4,8.8c-1.5,0-3.3,0-5.5-0.1V64.6z M298.5,218.2c-7,7.1-17.4,10.6-31.3,10.6c-7.8,0-13-1.2-15.7-3.5
	c-2.7-2.3-4.3-5.7-4.9-10.2c-0.6-4.5-0.9-15-0.9-31.7v-39c3.5-0.2,6.8-0.3,9.9-0.3c19.8,0,33.6,3.4,41.5,10.3
	c7.9,6.8,11.8,17.5,11.8,32C308.9,200.5,305.4,211.1,298.5,218.2z"/>
<radialGradient id="SVGID_1_" cx="375.8235" cy="18.5971" r="7.0463" gradientTransform="matrix(0.9788 0 0 1 5.8875 0)" gradientUnits="userSpaceOnUse">
	<stop  offset="0.4479" style="stop-color:#DCBD8C"/>
	<stop  offset="1" style="stop-color:#B69F66"/>
</radialGradient>
<path class="st4" d="M376.5,26.1H371l-1.1-0.7l0.2-0.7c-1.8-1.2-2.7-2.3-2.8-4.5l0-0.1l0-0.1c0.3-5.1,5.7-8.5,6-8.7l0.4-0.3l0.4,0.3
	c0.2,0.1,5.8,3.6,6,8.8l0,0l0,0c-0.1,2.9-0.9,3.4-2.5,4.3c-0.1,0-0.2,0.1-0.3,0.2l0.2,0.7l-0.7,0.4c-0.1,0-0.1,0.1-0.2,0.1
	L376.5,26.1z M372.2,24.1h3l-0.1-0.3l0.7-0.4c0.4-0.2,0.7-0.4,1-0.6c1.2-0.7,1.5-0.8,1.5-2.6c-0.2-3.3-3.4-5.9-4.6-6.8
	c-1.2,0.9-4.4,3.4-4.6,6.7c0.1,1.5,0.6,2.1,2.5,3.3l0.7,0.4L372.2,24.1z"/>
<linearGradient id="SVGID_00000076591033058391502080000006257192848814762427_" gradientUnits="userSpaceOnUse" x1="375.1336" y1="71.8979" x2="375.1336" y2="24.2749" gradientTransform="matrix(0.9904 0 0 1 2.6273 0)">
	<stop  offset="6.134970e-03" style="stop-color:#D1B581"/>
	<stop  offset="0.5951" style="stop-color:#D1B581"/>
	<stop  offset="1" style="stop-color:#B69F66"/>
</linearGradient>
<path style="fill:url(#SVGID_00000076591033058391502080000006257192848814762427_);" d="M415.8,45.1c-0.9,1.3-4.7,5.6-15.9,5.6
	c-11.7,0-22.3-21.5-24.5-26.4l-3.8,0c-1.4,4.5-8.8,26.7-21.8,26.7c-11.8,0-16.1-4.3-17.3-5.9l-2.5,1.7l9.8,25.1
	c1.8-2.9,6.2-5.6,33.7-6.2c27.6-0.6,33.2,6.3,33.2,6.3l11.7-25.2L415.8,45.1z M360.1,59.3l-0.6-0.1c-0.6-0.1-1.2-0.3-1.7-0.8
	c-1.1-1.1-1.1-3,0-4.1c0.8-0.8,2.8-2.9,3.6-3.7c1.1-1.1,2.9-1.1,4,0c0.5,0.5,0.8,1.2,0.8,1.9l0,0.8l0.5,6.7L360.1,59.3z M374.1,60.5
	c-2.4,0-4.3-5.4-4.3-12c0-6.6,1.9-12,4.3-12c2.3,0,4.2,5.4,4.2,12C378.3,55.1,376.4,60.5,374.1,60.5z M390.7,58.4
	c-0.5,0.5-1.1,0.8-1.7,0.8l-0.6,0.1l-6.7,0.6l0.5-6.7l0-0.8c0-0.7,0.3-1.4,0.8-1.9c1.1-1.1,2.9-1.1,4,0c0.8,0.8,1,2,0.7,3
	c1-0.3,2.1-0.1,2.9,0.7C391.8,55.4,391.8,57.3,390.7,58.4z"/>
<g class="st6">
	<path class="st7" d="M374.1,35.5c-2.4,0-4.3,5.4-4.3,12c0,0.2,0,0.3,0,0.4c0.1-6.4,1.9-11.5,4.3-11.5c2.3,0,4.2,5.1,4.2,11.5
		c0-0.1,0-0.3,0-0.4C378.3,40.8,376.4,35.5,374.1,35.5z"/>
	<path class="st7" d="M366.2,52.2l0-0.8c0-0.7-0.3-1.4-0.8-1.9c-1.1-1.1-2.9-1.1-4,0c-0.8,0.8-2.8,2.9-3.6,3.7
		c-0.7,0.7-0.9,1.6-0.8,2.5c0.1-0.6,0.3-1.2,0.8-1.6c0.8-0.8,2.8-2.9,3.6-3.7c1.1-1.1,2.9-1.1,4,0c0.5,0.5,0.8,1.2,0.8,1.9l0,0.8
		l0.5,5.8l0.1,0L366.2,52.2z"/>
	<path class="st7" d="M387.1,49.6c-1.1-1.1-2.9-1.1-4,0c-0.5,0.5-0.8,1.2-0.8,1.9l0,0.8l-0.5,6.7l0.1,0l0.5-5.8l0-0.8
		c0-0.7,0.3-1.4,0.8-1.9c1.1-1.1,2.9-1.1,4,0c0.4,0.5,0.7,1,0.8,1.6C388,51.2,387.8,50.2,387.1,49.6z"/>
	<path class="st7" d="M406.7,70.9c0,0-5.5-7-33.2-6.3c-27.5,0.6-31.9,3.4-33.7,6.2l-9.6-24.4l-0.3,0.2l9.8,25.1
		c1.8-2.9,6.2-5.6,33.7-6.2c27.6-0.6,33.2,6.3,33.2,6.3l11.7-25.2l-0.3-0.2L406.7,70.9z"/>
	<path class="st7" d="M390.7,53.2c-0.7-0.8-1.8-1-2.8-0.7c0,0.3,0,0.6-0.1,0.9c1-0.3,2.1-0.1,2.9,0.7c0.4,0.5,0.7,1,0.8,1.6
		C391.6,54.9,391.4,53.9,390.7,53.2z"/>
</g>
<linearGradient id="SVGID_00000028305763023648629200000017602848333617453757_" gradientUnits="userSpaceOnUse" x1="367.519" y1="18.7553" x2="380.3549" y2="18.7553">
	<stop  offset="0" style="stop-color:#E4C168"/>
	<stop  offset="0.2883" style="stop-color:#F9E693"/>
	<stop  offset="1" style="stop-color:#E2BE64"/>
</linearGradient>
<path style="fill:url(#SVGID_00000028305763023648629200000017602848333617453757_);" d="M376.7,26.3h-5.5l-1.1-0.7l0.2-0.7
	c-1.8-1.2-2.7-2.3-2.8-4.5l0-0.1l0-0.1c0.3-5.1,5.7-8.5,6-8.7l0.4-0.3l0.4,0.3c0.2,0.1,5.8,3.6,6,8.8l0,0l0,0
	c-0.1,2.9-0.9,3.4-2.5,4.3c-0.1,0-0.2,0.1-0.3,0.2l0.2,0.7l-0.7,0.4c-0.1,0-0.1,0.1-0.2,0.1L376.7,26.3z M372.4,24.3h3l-0.1-0.3
	l0.7-0.4c0.4-0.2,0.7-0.4,1-0.6c1.2-0.7,1.4-0.8,1.5-2.6c-0.2-3.3-3.4-6-4.6-6.8c-1.2,0.9-4.4,3.4-4.6,6.7c0.1,1.5,0.6,2.1,2.5,3.3
	l0.7,0.4L372.4,24.3z"/>
<radialGradient id="SVGID_00000157994507314934147890000006908522977386496431_" cx="375.9866" cy="13.2054" r="8.2662" gradientTransform="matrix(5.993421e-17 -1.0803 0.9062 6.124175e-17 361.9366 426.9275)" gradientUnits="userSpaceOnUse">
	<stop  offset="0" style="stop-color:#EACE8C"/>
	<stop  offset="0.7851" style="stop-color:#F6ECD2"/>
	<stop  offset="1" style="stop-color:#F8F0DC"/>
</radialGradient>
<path style="fill:url(#SVGID_00000157994507314934147890000006908522977386496431_);fill-opacity:0.2;" d="M376.6,25.8h-5.3
	l-0.8-0.5l0.2-0.5c0-0.1,0.1-0.2,0.1-0.2c-1.8-1.2-2.8-2.2-2.9-4.4l0,0l0,0c0.3-4.9,5.6-8.2,5.8-8.3l0.3-0.2l0.3,0.2
	c0.2,0.1,5.6,3.5,5.8,8.5l0,0l0,0c-0.1,2.6-0.8,3.1-2.3,4c-0.2,0.1-0.4,0.2-0.6,0.3c0,0.1,0.1,0.2,0.1,0.2l0.2,0.5l-0.5,0.3
	c-0.1,0-0.1,0.1-0.2,0.1L376.6,25.8z M371.9,24.6h4.1c0,0,0,0,0-0.1l-0.2-0.5l0.4-0.2c0.4-0.2,0.7-0.4,1-0.6
	c1.3-0.7,1.6-0.9,1.7-2.9c-0.2-3.7-3.9-6.6-5-7.3c-1,0.7-4.7,3.5-5,7.2c0.1,1.7,0.8,2.4,2.7,3.6l0.4,0.2L371.9,24.6
	C371.9,24.6,371.9,24.6,371.9,24.6z"/>
<radialGradient id="SVGID_00000105402689183998943600000009995269957309411465_" cx="181.7777" cy="-30.2943" r="3.9425" gradientTransform="matrix(0.7818 -0.6016 0.7934 1.0761 209.9208 184.8911)" gradientUnits="userSpaceOnUse">
	<stop  offset="0.4479" style="stop-color:#DCBD8C"/>
	<stop  offset="1" style="stop-color:#B69F66"/>
</radialGradient>
<path style="fill:url(#SVGID_00000105402689183998943600000009995269957309411465_);" d="M324.7,38.6
	C324.7,38.6,324.7,38.6,324.7,38.6c-1.9,1.5-2,4.7-0.2,7.1c1.8,2.4,4.8,3.1,6.7,1.6l0,0c1.9-1.5,2-4.7,0.2-7.1
	C329.6,37.8,326.7,37.1,324.7,38.6z M331,46.9L331,46.9c-1.8,1.4-4.5,0.7-6.2-1.5c-1.7-2.2-1.6-5.1,0.1-6.5l0,0
	c1.8-1.4,4.5-0.7,6.2,1.5C332.8,42.6,332.8,45.5,331,46.9z"/>
<radialGradient id="SVGID_00000008869794634091568170000016855794287339656075_" cx="244.7403" cy="17.1968" r="3.9425" gradientTransform="matrix(-0.7818 -0.6016 -0.7934 1.0761 625.2244 171.7205)" gradientUnits="userSpaceOnUse">
	<stop  offset="0.4479" style="stop-color:#DCBD8C"/>
	<stop  offset="1" style="stop-color:#B69F66"/>
</radialGradient>
<path style="fill:url(#SVGID_00000008869794634091568170000016855794287339656075_);" d="M416.8,40.2c-1.8,2.4-1.8,5.6,0.2,7.1l0,0
	c1.9,1.5,4.9,0.8,6.7-1.6c1.8-2.4,1.8-5.6-0.1-7.1c0,0,0,0,0,0C421.6,37.1,418.6,37.8,416.8,40.2z M417.1,40.5
	c1.7-2.2,4.4-2.8,6.2-1.5l0,0c1.7,1.4,1.8,4.3,0.1,6.5c-1.7,2.2-4.4,2.8-6.1,1.5l0,0C415.5,45.6,415.4,42.7,417.1,40.5z"/>
<g>
	
		<linearGradient id="SVGID_00000128485771118676166800000010471064311788191923_" gradientUnits="userSpaceOnUse" x1="242.8623" y1="18.9568" x2="250.9066" y2="18.9568" gradientTransform="matrix(-0.7988 -0.6016 -0.6016 0.7988 628.8565 176.4897)">
		<stop  offset="0.1288" style="stop-color:#F9E693"/>
		<stop  offset="1" style="stop-color:#E2BE64"/>
	</linearGradient>
	<path style="fill:url(#SVGID_00000128485771118676166800000010471064311788191923_);" d="M417.1,40.6c-1.7,2.2-1.6,5.1,0.1,6.5l0,0
		c1.8,1.4,4.5,0.7,6.1-1.5c1.7-2.2,1.6-5.1-0.1-6.5l0,0C421.4,37.8,418.8,38.4,417.1,40.6z M418.2,41.5c1.2-1.6,3.1-2.2,4.3-1.3
		c1.1,0.9,1.1,3-0.1,4.6c-1.2,1.6-3.1,2.2-4.3,1.3l0,0C416.9,45.1,417,43.1,418.2,41.5z"/>
	<path class="st1" d="M422.2,40.4c1,0.8,1,2.7-0.1,4.2c-1.1,1.4-2.8,2-3.9,1.2l0,0c-1-0.8-0.9-2.7,0.1-4.1
		C419.5,40.2,421.2,39.6,422.2,40.4z"/>
	
		<linearGradient id="SVGID_00000108291694519721105380000000676338156879995063_" gradientUnits="userSpaceOnUse" x1="242.4619" y1="18.9564" x2="251.3027" y2="18.9564" gradientTransform="matrix(-0.7988 -0.6016 -0.6016 0.7988 628.8565 176.4897)">
		<stop  offset="0" style="stop-color:#E2BE64"/>
		<stop  offset="0.8712" style="stop-color:#F9E693"/>
	</linearGradient>
	<path style="fill:url(#SVGID_00000108291694519721105380000000676338156879995063_);" d="M416.8,40.4c-1.8,2.4-1.8,5.6,0.2,7.1l0,0
		c1.9,1.5,4.9,0.8,6.7-1.6c1.8-2.4,1.8-5.6-0.1-7.1c0,0,0,0,0,0C421.6,37.2,418.6,37.9,416.8,40.4z M417.1,40.6
		c1.7-2.2,4.4-2.8,6.2-1.5l0,0c1.7,1.4,1.8,4.3,0.1,6.5c-1.7,2.2-4.4,2.8-6.1,1.5l0,0C415.5,45.7,415.4,42.8,417.1,40.6z"/>
	<path class="st14" d="M417.1,40.6c-1.7,2.2-1.6,5.1,0.1,6.5l0,0c1.8,1.4,4.5,0.7,6.1-1.5c1.7-2.2,1.6-5.1-0.1-6.5l0,0
		C421.4,37.8,418.8,38.4,417.1,40.6z M418.2,41.5c1.2-1.6,3.1-2.2,4.3-1.3c1.1,0.9,1.1,3-0.1,4.6c-1.2,1.6-3.1,2.2-4.3,1.3l0,0
		C416.9,45.1,417,43.1,418.2,41.5z"/>
</g>
<g>
	
		<linearGradient id="SVGID_00000147217143545362193280000009243316780889039275_" gradientUnits="userSpaceOnUse" x1="337.4584" y1="80.0009" x2="410.9467" y2="80.0009">
		<stop  offset="5.173400e-02" style="stop-color:#997954"/>
		<stop  offset="7.322485e-02" style="stop-color:#A4845C"/>
		<stop  offset="0.1299" style="stop-color:#BC9D6C"/>
		<stop  offset="0.1906" style="stop-color:#CFB17A"/>
		<stop  offset="0.2566" style="stop-color:#DCC083"/>
		<stop  offset="0.3317" style="stop-color:#E6C989"/>
		<stop  offset="0.4356" style="stop-color:#EACE8C"/>
		<stop  offset="0.6933" style="stop-color:#EACE8C"/>
	</linearGradient>
	<path style="fill:url(#SVGID_00000147217143545362193280000009243316780889039275_);" d="M374.2,70.6c-5.3,0-10.4,0.3-15,1
		c-12.6,1.7-21.4,5.6-21.8,10c0.3,3.1,4.5,5.8,11.2,7.8c-1.6-1.1-2.4-2.3-2.4-3.6c0-0.1,0-0.2,0-0.3c0-0.1,0-0.2,0-0.3
		c0-0.7,0.3-1.5,0.8-2.1c1.2-1.5,3.5-2.8,6.8-3.9c5-1.5,12.3-2.4,20.4-2.4c2.1,0,4.1,0.1,6,0.2c8.1,0.5,14.8,1.9,18.4,3.8
		c0.1,0.1,0.8,0.5,0.9,0.5c1.9,1.2,2.9,2.5,2.9,4c0,0.1,0,0.2,0,0.3c0,0.1,0,0.2,0,0.3c0,1.2-0.8,2.4-2.2,3.4
		c6.4-2,10.4-4.7,10.6-7.7C410.4,75.5,394.2,70.6,374.2,70.6z"/>
	<path class="st16" d="M374.2,70.9c-5.3,0-10.4,0.3-15,1c-12.6,1.7-21.4,5.6-21.8,10c0.3,3.1,4.5,5.8,11.2,7.8
		c-1.6-1.1-2.4-2.3-2.4-3.6c0-0.1,0-0.2,0-0.3c0-0.1,0-0.2,0-0.3c0-0.7,0.3-1.5,0.8-2.1c1.2-1.5,3.5-2.8,6.8-3.9
		c5-1.5,12.3-2.4,20.4-2.4c2.1,0,4.1,0.1,6,0.2c8.1,0.5,14.8,1.9,18.4,3.8c0.1,0.1,0.8,0.5,0.9,0.5c1.9,1.2,2.9,2.5,2.9,4
		c0,0.1,0,0.2,0,0.3c0,0.1,0,0.2,0,0.3c0,1.2-0.8,2.4-2.2,3.4c6.4-2,10.4-4.7,10.6-7.7C410.4,75.9,394.2,70.9,374.2,70.9z"/>
	
		<radialGradient id="SVGID_00000081625776023084639130000005382077324291586495_" cx="393.3975" cy="87.0806" r="8.264" gradientTransform="matrix(0.9312 -0.3645 0.2765 0.7064 2.9846 168.9529)" gradientUnits="userSpaceOnUse">
		<stop  offset="0.4479" style="stop-color:#DCBD8C"/>
		<stop  offset="1" style="stop-color:#B69F66"/>
	</radialGradient>
	<path style="fill:url(#SVGID_00000081625776023084639130000005382077324291586495_);" d="M402.3,85.6c0-1.4-1.1-2.8-2.9-4
		c1.3,0.8,2,1.8,2,2.7c0,2.1-3.3,4-8.7,5.3c0,0-0.8,0-0.8,0.9c0.1,0.9,0.8,0.9,0.8,0.9c2-0.4,3.8-0.8,5.5-1.2
		C400.8,88.9,402.3,87.3,402.3,85.6z"/>
	
		<radialGradient id="SVGID_00000106857185528560293820000017380880006334425008_" cx="351.8781" cy="86.0154" r="7.961" gradientTransform="matrix(0.9682 0.2501 -0.1523 0.5895 24.2875 -52.7089)" gradientUnits="userSpaceOnUse">
		<stop  offset="0.4479" style="stop-color:#DCBD8C"/>
		<stop  offset="1" style="stop-color:#B69F66"/>
	</radialGradient>
	<path style="fill:url(#SVGID_00000106857185528560293820000017380880006334425008_);" d="M350.6,90.5c1.5,0.4,3,0.7,4.7,1
		c0,0,0.9-0.1,1-0.8c0.1-0.7-1.1-1-1.1-1c-5.2-1.3-8.5-3.2-8.5-5.3c0-0.3,0.1-0.6,0.2-0.9c-0.5,0.7-0.8,1.4-0.8,2.1
		C346.1,87.4,347.7,89.1,350.6,90.5z"/>
	
		<linearGradient id="SVGID_00000086650746798391714930000002116327610369376157_" gradientUnits="userSpaceOnUse" x1="374.0636" y1="125.4609" x2="336.5311" y2="72.0649" gradientTransform="matrix(1 0 0 1 0 3.900000e-03)">
		<stop  offset="5.173400e-02" style="stop-color:#997954"/>
		<stop  offset="7.322485e-02" style="stop-color:#A4845C"/>
		<stop  offset="0.1299" style="stop-color:#BC9D6C"/>
		<stop  offset="0.1906" style="stop-color:#CFB17A"/>
		<stop  offset="0.2566" style="stop-color:#DCC083"/>
		<stop  offset="0.3317" style="stop-color:#E6C989"/>
		<stop  offset="0.4356" style="stop-color:#EACE8C"/>
		<stop  offset="0.6933" style="stop-color:#EACE8C"/>
		<stop  offset="1" style="stop-color:#F6ECD2"/>
	</linearGradient>
	<path style="fill:url(#SVGID_00000086650746798391714930000002116327610369376157_);" d="M348.5,89.9c0.7,0.2,1.4,0.4,2.1,0.6
		c-2.7-1.3-4.3-2.8-4.5-4.5c0,0.1,0,0.2,0,0.3C346.1,87.6,346.9,88.8,348.5,89.9z"/>
	
		<linearGradient id="SVGID_00000018947321191875050060000006967672391285550262_" gradientUnits="userSpaceOnUse" x1="409.1566" y1="100.8032" x2="371.5979" y2="47.3699" gradientTransform="matrix(1 0 0 1 0 3.900000e-03)">
		<stop  offset="5.173400e-02" style="stop-color:#997954"/>
		<stop  offset="7.322485e-02" style="stop-color:#A4845C"/>
		<stop  offset="0.1299" style="stop-color:#BC9D6C"/>
		<stop  offset="0.1906" style="stop-color:#CFB17A"/>
		<stop  offset="0.2566" style="stop-color:#DCC083"/>
		<stop  offset="0.3317" style="stop-color:#E6C989"/>
		<stop  offset="0.4356" style="stop-color:#EACE8C"/>
		<stop  offset="0.6933" style="stop-color:#EACE8C"/>
		<stop  offset="1" style="stop-color:#F6ECD2"/>
	</linearGradient>
	<path style="fill:url(#SVGID_00000018947321191875050060000006967672391285550262_);" d="M402.3,86.3c0-0.1,0-0.2,0-0.3
		c-0.2,1.6-1.7,3.1-4.1,4.3c0.7-0.2,1.3-0.4,2-0.6C401.6,88.7,402.3,87.5,402.3,86.3z"/>
	
		<radialGradient id="SVGID_00000049914740997133979200000006000743506227052468_" cx="374.2026" cy="81.5468" r="20.136" gradientTransform="matrix(1 0 0 1 0 3.900000e-03)" gradientUnits="userSpaceOnUse">
		<stop  offset="0.362" style="stop-color:#997954"/>
		<stop  offset="0.9483" style="stop-color:#997954"/>
	</radialGradient>
	<path style="fill:url(#SVGID_00000049914740997133979200000006000743506227052468_);" d="M399.4,81.7c-0.1-0.1-0.8-0.5-0.9-0.5
		c-4.5-2.4-13.8-4-24.4-4c-8.1,0-15.4,0.9-20.4,2.4c-3.2,1.1-5.6,2.4-6.8,3.9c-0.5,0.7-0.8,1.4-0.8,2.1c0,0.1,0,0.2,0,0.3
		c0.1-0.6,0.3-1.6,0.8-2.2c1.2-1.5,3.5-2.8,6.8-3.9c5-1.5,12.3-2.1,20.4-2.1c10.7,0,19.9,1.3,24.4,3.6c0.1,0.1,0.8,0.5,0.9,0.5
		c1.7,1.1,2.8,2.7,2.9,4c0-0.1,0-0.2,0-0.3C402.3,84.2,401.3,82.9,399.4,81.7z"/>
	<path class="st16" d="M399.4,82c-0.1-0.1-0.8-0.5-0.9-0.5c-4.5-2.4-13.8-4-24.4-4c-8.1,0-15.4,0.9-20.4,2.4
		c-3.2,1.1-5.6,2.4-6.8,3.9c-0.5,0.7-0.8,1.4-0.8,2.1c0,0.1,0,0.2,0,0.3c0.1-0.6,0.3-1.6,0.8-2.2c1.2-1.5,3.5-2.8,6.8-3.9
		c5-1.5,12.3-2.1,20.4-2.1c10.7,0,19.9,1.3,24.4,3.6c0.1,0.1,0.8,0.5,0.9,0.5c1.7,1.1,2.8,2.7,2.9,4c0-0.1,0-0.2,0-0.3
		C402.3,84.5,401.3,83.2,399.4,82z"/>
	
		<linearGradient id="SVGID_00000026144720216741441190000014320267829553719225_" gradientUnits="userSpaceOnUse" x1="394.4689" y1="111.1129" x2="356.9394" y2="57.7211" gradientTransform="matrix(1 0 0 1 0 3.900000e-03)">
		<stop  offset="5.173400e-02" style="stop-color:#997954"/>
		<stop  offset="7.322485e-02" style="stop-color:#A4845C"/>
		<stop  offset="0.1299" style="stop-color:#BC9D6C"/>
		<stop  offset="0.1906" style="stop-color:#CFB17A"/>
		<stop  offset="0.2566" style="stop-color:#DCC083"/>
		<stop  offset="0.3317" style="stop-color:#E6C989"/>
		<stop  offset="0.4356" style="stop-color:#EACE8C"/>
		<stop  offset="0.6933" style="stop-color:#EACE8C"/>
		<stop  offset="1" style="stop-color:#F6ECD2"/>
	</linearGradient>
	<path style="fill:url(#SVGID_00000026144720216741441190000014320267829553719225_);" d="M410.8,82.1c-0.5-6.1-16.8-11-36.7-11
		c-20,0-36.2,4.9-36.7,11c0.3,3.1,4.5,5.8,11.2,7.8c-1.6-1.1-2.4-2.3-2.4-3.6c0-0.1,0-0.2,0-0.3c0-0.1,0-0.2,0-0.3
		c0-0.7,0.3-1.5,0.8-2.1c1.2-1.5,3.5-2.8,6.8-3.9c5-1.5,12.3-2.4,20.4-2.4c10.7,0,19.9,1.6,24.4,4c0.1,0.1,0.8,0.5,0.9,0.5
		c1.9,1.2,2.9,2.5,2.9,4c0,0.1,0,0.2,0,0.3c0,0.1,0,0.2,0,0.3c0,1.2-0.8,2.4-2.2,3.4C406.5,87.7,410.5,85,410.8,82.1z"/>
	
		<linearGradient id="SVGID_00000145775160104713608880000004784331687382917816_" gradientUnits="userSpaceOnUse" x1="348.8618" y1="80.3735" x2="414.0099" y2="80.3735" gradientTransform="matrix(1 0 0 1 0 3.900000e-03)">
		<stop  offset="0.1288" style="stop-color:#F9E693"/>
		<stop  offset="1" style="stop-color:#E2BE64"/>
	</linearGradient>
	<path style="fill:url(#SVGID_00000145775160104713608880000004784331687382917816_);" d="M374,71c-5.3,0-10.4,0.4-15,1
		c8,0.2,15.3,2.1,21,5.3c8.1,0.5,14.8,1.9,18.4,3.8c0.1,0.1,0.8,0.5,0.9,0.5c1.9,1.2,2.9,2.5,2.9,4c0,0.1,0,0.2,0,0.3
		c0,0.1,0,0.2,0,0.3c0,1.2-0.8,2.4-2.2,3.4c6.4-2,10.4-4.7,10.6-7.7C410.2,75.9,394,71,374,71z"/>
	
		<linearGradient id="SVGID_00000020385954191324119600000014365558341396863915_" gradientUnits="userSpaceOnUse" x1="385.3893" y1="118.135" x2="347.8611" y2="64.7452" gradientTransform="matrix(1 0 0 1 0 3.900000e-03)">
		<stop  offset="5.173400e-02" style="stop-color:#997954"/>
		<stop  offset="7.322485e-02" style="stop-color:#A4845C"/>
		<stop  offset="0.1299" style="stop-color:#BC9D6C"/>
		<stop  offset="0.1906" style="stop-color:#CFB17A"/>
		<stop  offset="0.2566" style="stop-color:#DCC083"/>
		<stop  offset="0.3317" style="stop-color:#E6C989"/>
		<stop  offset="0.4356" style="stop-color:#EACE8C"/>
		<stop  offset="0.6933" style="stop-color:#EACE8C"/>
		<stop  offset="1" style="stop-color:#F6ECD2"/>
	</linearGradient>
	<path style="fill:url(#SVGID_00000020385954191324119600000014365558341396863915_);" d="M337.3,82.1c0.3,3.1,4.5,5.8,11.2,7.8
		c-1.6-1.1-2.4-2.3-2.4-3.6c0-0.1,0-0.2,0-0.3c0-0.1,0-0.2,0-0.3c0-0.7,0.3-1.5,0.8-2.1c1.2-1.5,3.5-2.8,6.8-3.9
		c5-1.5,12.3-2.4,20.4-2.4c2.1,0,4.1,0.1,6,0.2c-5.7-3.2-13-5.1-21-5.3C346.5,73.7,337.7,77.6,337.3,82.1z"/>
	
		<linearGradient id="SVGID_00000015321284859245641860000012553217064259395980_" gradientUnits="userSpaceOnUse" x1="327.7475" y1="88.662" x2="371.9045" y2="74.5928">
		<stop  offset="0" style="stop-color:#E2BE64"/>
		<stop  offset="0.8712" style="stop-color:#F9E693"/>
	</linearGradient>
	<path style="fill:url(#SVGID_00000015321284859245641860000012553217064259395980_);" d="M337.3,82.1c0.3,3.1,4.5,5.8,11.2,7.8
		c-1.6-1.1-2.4-2.3-2.4-3.6c0-0.1,0-0.2,0-0.3c0-0.1,0-0.2,0-0.3c0-0.7,0.3-1.5,0.8-2.1c1.2-1.5,3.5-2.8,6.8-3.9
		c5-1.5,12.3-2.4,20.4-2.4c2.1,0,4.1,0.1,6,0.2c-5.7-3.2-13-5.1-21-5.3C346.5,73.7,337.7,77.6,337.3,82.1z"/>
	<path class="st26" d="M402.3,85.5c0,0,0-0.1,0-0.1c0-1.4-1.1-2.8-2.9-4c-0.1-0.1-0.8-0.5-0.9-0.5c-3.6-1.9-10.3-3.3-18.4-3.8
		c-1.9-0.1-4-0.2-6-0.2c-8.1,0-15.4,0.9-20.4,2.4c-3.2,1.1-5.6,2.4-6.8,3.9c-0.5,0.7-0.8,1.4-0.8,2.1c0,0,0,0.1,0,0.1
		c0-0.7,0.3-1.3,0.8-2c1.2-1.5,3.5-2.8,6.8-3.9c5-1.5,12.3-2.4,20.4-2.4c2.1,0,4.1,0.1,6,0.2c8.1,0.5,14.8,1.9,18.4,3.8
		c0.1,0.1,0.8,0.5,0.9,0.5C401.2,82.8,402.3,84.1,402.3,85.5z"/>
	
		<linearGradient id="SVGID_00000162334799996040764820000006614583863735945864_" gradientUnits="userSpaceOnUse" x1="337.2963" y1="75.8144" x2="410.7865" y2="75.8144">
		<stop  offset="0" style="stop-color:#FFFFFF"/>
		<stop  offset="1" style="stop-color:#E4C375"/>
	</linearGradient>
	<path style="fill:url(#SVGID_00000162334799996040764820000006614583863735945864_);fill-opacity:0.2;" d="M359.1,72.5
		c4.6-0.6,9.6-0.9,15-0.9c19.3,0,35.2,4.2,36.7,9.5c0-0.2,0.1-0.3,0.1-0.5c-0.5-5.5-16.8-10-36.7-10c-5.3,0-10.4,0.3-15,0.9
		c-12.6,1.6-21.4,5-21.8,9.1c0,0.2,0.1,0.3,0.1,0.5C338.4,77.2,347,74,359.1,72.5z"/>
</g>
<path class="st3" d="M315.1,126.6c8.3-6.9,12.4-16,12.4-27.3c0-27.5-24.2-41.3-72.5-41.3l-9.1,0.3v6.3c3.5-0.2,6.9-0.4,10.2-0.4
	c13,0,22.2,1.4,27.6,4.1c5.4,2.7,9.4,6.6,12.1,11.6c2.7,5,4,12.1,4,21.2c0,13.1-3.4,22.6-10.3,28.4c-6.9,5.9-19.7,8.8-38.4,8.8
	c-1.4,0-3.4,0-5.5-0.1v2.4h32.3C294.4,138.1,306.8,133.4,315.1,126.6z"/>
<path class="st28" d="M255.3,58l-0.3,0c47.5,0.2,71.3,14,71.3,41.3c0,11.4-4.1,20.5-12.4,27.3c-8.2,6.8-20.6,11.5-37.1,13.9h1.5
	c16.5-2.4,28.9-7,37.1-13.9c8.3-6.9,12.4-16,12.4-27.3C327.8,71.7,303.6,58,255.3,58z"/>
<path class="st3" d="M277.9,140.5h-32.3v3.9c3.4-0.2,6.9-0.3,10-0.3c19.8,0,33.6,3.4,41.5,10.3c7.9,6.8,11.8,17.5,11.8,32
	c0,14.1-3.5,24.7-10.4,31.8c-7,7.1-17.4,10.6-31.3,10.6c-7.8,0-13-1.2-15.7-3.5c-2.7-2.3-4.3-5.7-4.9-10.2c-0.4-2.7-0.6-7.8-0.8-15
	V235l14.4,0c17.3,0,31.1-1.2,41.4-3.7c10.3-2.5,18.7-7.7,25.3-15.7c6.6-8,9.9-17.5,9.9-28.5c0-12.7-4.9-23.2-14.6-31.7
	c-9.7-8.5-24.6-13.4-44.7-14.9"/>
<g class="st6">
	<g>
		<path class="st29" d="M322.3,155.4c-9.7-8.5-24.6-13.4-44.7-14.9l0.3-0.1h-2.2l-0.3,0.1c20.1,1.5,35,6.4,44.7,14.9
			c9.7,8.5,14.6,19,14.6,31.7c0,11-3.3,20.5-9.9,28.5c-6.6,8-15.1,13.2-25.3,15.7c-10.1,2.4-23.7,3.6-40.6,3.7l1.4,0
			c17.3,0,31.1-1.2,41.4-3.7c10.3-2.5,18.7-7.7,25.3-15.7c6.6-8,9.9-17.5,9.9-28.5C336.9,174.4,332.1,163.9,322.3,155.4z"/>
	</g>
</g>
<path class="st3" d="M221.9,59l-29.1,0.8v5.9h3.4c9,0,14.8,0.8,17.5,2.3c2.7,1.5,4.4,4.4,5.2,8.5c0.8,4.1,1.2,13.3,1.2,27.5v85.3
	c0,14.6-0.4,24-1.2,28c-0.8,4-2.6,7-5.5,8.8c-2,1.3-5.1,2.1-9.3,2.6c-5-0.7-8.8-2.1-11.4-4.2c-0.1-0.1-0.1-0.1-0.2-0.2V235h14h39.1
	V58.3L221.9,59z"/>
<polygon class="st1" points="459.8,164.6 522.1,164.6 491,89.9 "/>
<path class="st1" d="M292,129.4c6.9-5.9,10.3-15.3,10.3-28.4c0-9.1-1.3-16.2-4-21.2c-2.7-5-6.7-8.8-12.1-11.6
	c-5.4-2.7-14.6-4.1-27.6-4.1c-3.4,0-6.9,0.1-10.4,0.4v73.5c2.2,0.1,4,0.1,5.5,0.1C272.3,138.2,285.1,135.3,292,129.4z"/>
<polygon class="st1" points="77.1,164.6 139.4,164.6 108.3,89.9 "/>
<path class="st1" d="M387.7,54.8c0.3-1,0.1-2.2-0.7-3c-1.1-1.1-2.9-1.1-4,0c-0.5,0.5-0.8,1.2-0.8,1.9l0,0.8l-0.6,6.7l6.8-0.6
	l0.6-0.1c0.6-0.1,1.3-0.3,1.7-0.8c1.1-1.1,1.1-3,0-4.1C389.8,54.7,388.7,54.4,387.7,54.8z"/>
<path class="st1" d="M373.8,61.7c2.4,0,4.3-5.4,4.3-12c0-0.1,0-0.1,0-0.2c-0.6,4.2-2.6,8.2-5.7,11.5
	C372.9,61.5,373.3,61.7,373.8,61.7z"/>
<path class="st1" d="M373.8,37.8c-2.4,0-4.3,5.3-4.3,11.9c0,0,0,0.1,0,0.1c0,3.9,2.5,8.8,4.5,11.8c2.3-0.3,4.1-5.5,4.1-12
	c0,0,0-0.1,0-0.1c0,0,0,0,0,0C378.1,43.1,376.2,37.8,373.8,37.8z"/>
<path class="st1" d="M365.9,53.8c0-0.7-0.3-1.4-0.8-1.9c-1.1-1.1-2.9-1.1-4.1,0c-0.6,0.6-0.8,1.4-0.8,2.1c0,0.3,0.1,0.5,0.1,0.7
	c0,0,0,0,0,0c0,0,0,0.1,0,0.1c-1-0.3-2.1-0.1-2.9,0.7c-0.5,0.6-0.8,1.3-0.8,2c0,0.7,0.3,1.5,0.8,2c0.5,0.5,1.1,0.8,1.7,0.8l0.6,0.1
	l6.8,0.6l-0.5-6.6L365.9,53.8z"/>
<path class="st1" d="M387.7,54.8c0.3-1,0.1-2.2-0.7-3c-1.1-1.1-2.9-1.1-4,0c-0.5,0.5-0.8,1.2-0.8,1.9l0,0.8l-0.6,6.7l6.8-0.6
	l0.6-0.1c0.6-0.1,1.3-0.3,1.7-0.8c1.1-1.1,1.1-3,0-4.1C389.8,54.7,388.7,54.4,387.7,54.8z"/>
<linearGradient id="SVGID_00000019636835190043997720000016579169943865089465_" gradientUnits="userSpaceOnUse" x1="330.3875" y1="46.8443" x2="477.8939" y2="110.842">
	<stop  offset="0" style="stop-color:#E2BE64"/>
	<stop  offset="0.7178" style="stop-color:#F3DC88"/>
	<stop  offset="1" style="stop-color:#E4C168"/>
</linearGradient>
<path style="fill:url(#SVGID_00000019636835190043997720000016579169943865089465_);" d="M359.1,60.5c-0.6-0.1-1.3-0.3-1.7-0.8
	c-0.5-0.6-0.8-1.3-0.8-2c0,0.8,0.3,1.5,0.8,2.1C357.9,60.2,358.5,60.5,359.1,60.5l0.6,0.2l6.8,0.6l0-0.1l-6.8-0.6L359.1,60.5z"/>
<linearGradient id="SVGID_00000115486286067399544850000010057612053328391066_" gradientUnits="userSpaceOnUse" x1="335.8736" y1="35.2003" x2="481.797" y2="98.5112">
	<stop  offset="0" style="stop-color:#E2BE64"/>
	<stop  offset="0.7178" style="stop-color:#F3DC88"/>
	<stop  offset="1" style="stop-color:#E4C168"/>
</linearGradient>
<path style="fill:url(#SVGID_00000115486286067399544850000010057612053328391066_);" d="M369.5,49.8
	C369.5,49.8,369.5,49.8,369.5,49.8C369.5,49.8,369.5,49.8,369.5,49.8C369.5,49.8,369.5,49.8,369.5,49.8z"/>
<linearGradient id="SVGID_00000103227396140660720510000016311532004914525062_" gradientUnits="userSpaceOnUse" x1="332.3549" y1="42.3091" x2="479.8665" y2="106.3091">
	<stop  offset="0" style="stop-color:#E2BE64"/>
	<stop  offset="0.7178" style="stop-color:#F3DC88"/>
	<stop  offset="1" style="stop-color:#E4C168"/>
</linearGradient>
<path style="fill:url(#SVGID_00000103227396140660720510000016311532004914525062_);" d="M360.1,54c0,0.3,0,0.5,0.1,0.7c0,0,0,0,0,0
	C360.2,54.5,360.2,54.3,360.1,54z"/>
<linearGradient id="SVGID_00000044892665676955121010000005855740543180294326_" gradientUnits="userSpaceOnUse" x1="337.9785" y1="29.3502" x2="485.4838" y2="93.3474">
	<stop  offset="0" style="stop-color:#E2BE64"/>
	<stop  offset="0.7178" style="stop-color:#F3DC88"/>
	<stop  offset="1" style="stop-color:#E4C168"/>
</linearGradient>
<path style="fill:url(#SVGID_00000044892665676955121010000005855740543180294326_);" d="M416,46.3c-0.9,1.3-4.7,5.6-16.1,5.6
	c-11.8,0-21.8-21.5-24-26.4h-4.6c-0.1,0.2-0.2,0.5-0.3,0.8c5.2,4.5,7.2,14.3,7.2,20.6c0,0.9-0.1,1.8-0.2,2.7c0,0,0,0.1,0,0.1
	c0,6.4-1.8,11.6-4.1,12c0.7,1.1,1.4,1.9,1.8,2.4c-0.2,0.2-1.3,0.5-3,0.8c0.2,0,0.3,0,0.5,0c19.5,0,33.3,3.5,33.3,7.1l0,0l11.9-24
	L416,46.3z M390.6,59.6c-0.5,0.5-1.1,0.8-1.7,0.8l-0.6,0.1l-6.8,0.6l0.6-6.7l0-0.8c0-0.7,0.3-1.4,0.8-1.9c1.1-1.1,2.9-1.1,4,0
	c0.8,0.8,1,2,0.7,3c1-0.3,2.1-0.1,2.9,0.7C391.7,56.6,391.7,58.5,390.6,59.6z"/>
<linearGradient id="SVGID_00000026122502653100403980000007641532692200690101_" gradientUnits="userSpaceOnUse" x1="330.9343" y1="45.5867" x2="478.4349" y2="109.5819">
	<stop  offset="0" style="stop-color:#E2BE64"/>
	<stop  offset="0.7178" style="stop-color:#F3DC88"/>
	<stop  offset="1" style="stop-color:#E4C168"/>
</linearGradient>
<path style="fill:url(#SVGID_00000026122502653100403980000007641532692200690101_);" d="M349.3,52.3c1,0,2-0.2,3-0.5
	C351.4,52,350.4,52.2,349.3,52.3c-11.9-0.1-16.3-4.4-17.5-6l-2.5,1.7l0,0.1l2.5-1.6C333.1,47.9,337.4,52.3,349.3,52.3z"/>
<linearGradient id="SVGID_00000127726159769533890770000016130681033113267340_" gradientUnits="userSpaceOnUse" x1="334.7798" y1="56.1109" x2="422.3024" y2="56.1109">
	<stop  offset="0.1288" style="stop-color:#F9E693"/>
	<stop  offset="1" style="stop-color:#E2BE64"/>
</linearGradient>
<path style="fill:url(#SVGID_00000127726159769533890770000016130681033113267340_);" d="M360.3,54.9c0,0,0-0.1,0-0.1
	c-1-0.3-2.1-0.1-2.9,0.7c-0.6,0.6-0.8,1.4-0.8,2.1c0-0.7,0.3-1.5,0.8-2C358.2,54.8,359.3,54.5,360.3,54.9z"/>
<linearGradient id="SVGID_00000181798832784218236070000003185412962509983109_" gradientUnits="userSpaceOnUse" x1="334.7834" y1="56.0095" x2="422.292" y2="56.0095">
	<stop  offset="0.1288" style="stop-color:#F9E693"/>
	<stop  offset="1" style="stop-color:#E2BE64"/>
</linearGradient>
<path style="fill:url(#SVGID_00000181798832784218236070000003185412962509983109_);" d="M365.9,54.4l0-0.8c0-0.7-0.3-1.4-0.8-1.9
	c-1.1-1.1-2.9-1.1-4.1,0c-0.6,0.6-0.9,1.4-0.8,2.2c0-0.8,0.3-1.5,0.8-2.1c1.1-1.1,2.9-1.1,4.1,0c0.5,0.5,0.8,1.2,0.8,1.9L365.9,54.4
	l0.5,6.7l0,0L365.9,54.4z"/>
<linearGradient id="SVGID_00000026123096882153272010000005064245243272490412_" gradientUnits="userSpaceOnUse" x1="334.7824" y1="43.7402" x2="422.2905" y2="43.7402">
	<stop  offset="0.1288" style="stop-color:#F9E693"/>
	<stop  offset="1" style="stop-color:#E2BE64"/>
</linearGradient>
<path style="fill:url(#SVGID_00000026123096882153272010000005064245243272490412_);" d="M373.8,37.7c-2.4,0-4.3,5.4-4.3,12
	c0,0,0,0,0,0.1C369.5,43.2,371.5,37.8,373.8,37.7c2.4,0.1,4.3,5.4,4.3,11.9c0,0,0,0,0,0c0,0,0-0.1,0-0.1
	C378.1,43,376.2,37.7,373.8,37.7z"/>
<linearGradient id="SVGID_00000016068448210503234980000017330071240602571196_" gradientUnits="userSpaceOnUse" x1="333.5611" y1="39.5349" x2="481.0654" y2="103.5318">
	<stop  offset="0" style="stop-color:#E2BE64"/>
	<stop  offset="0.7178" style="stop-color:#F3DC88"/>
	<stop  offset="1" style="stop-color:#E4C168"/>
</linearGradient>
<path style="fill:url(#SVGID_00000016068448210503234980000017330071240602571196_);" d="M374,61.7c-0.1,0-0.1,0-0.2,0
	c-0.5,0-1-0.2-1.4-0.7c-1.7-1.6-2.9-6-2.9-11.2c0,0,0,0,0,0c0,0,0,0,0,0c0,0,0,0,0-0.1c0-6.6,1.9-12,4.3-12c2.4,0,4.3,5.3,4.3,11.8
	c0,0,0,0.1,0,0.1c0.1-0.9,0.2-1.8,0.2-2.7c0-6.4-2-16.1-7.2-20.6c-0.3,0.9-0.8,2.3-1.4,3.8c-2.8,7.2-8.7,19.3-17.4,21.7
	c-1,0.3-2,0.5-3,0.5c-11.9,0-16.3-4.3-17.5-5.9l-2.5,1.6l10.6,23.8c0.2-3.2,11.6-6.3,28.1-6.9c1.6-0.1,3.2-0.1,4.9-0.1
	c1.7-0.3,2.8-0.6,3-0.8C375.4,63.6,374.8,62.8,374,61.7z M366.4,61.2l-6.8-0.6l-0.6-0.1c-0.6-0.1-1.3-0.3-1.7-0.8
	c-0.6-0.6-0.8-1.4-0.8-2.1c0-0.8,0.3-1.5,0.8-2.1c0.8-0.8,1.9-1,2.9-0.7c-0.1-0.2-0.1-0.5-0.1-0.7c0-0.8,0.2-1.6,0.8-2.2
	c1.1-1.1,2.9-1.1,4.1,0c0.5,0.5,0.8,1.2,0.8,1.9l0,0.8L366.4,61.2L366.4,61.2L366.4,61.2z"/>
<radialGradient id="SVGID_00000093863464745194346560000009687310838138032026_" cx="353.8374" cy="49.06" r="23.627" gradientUnits="userSpaceOnUse">
	<stop  offset="0" style="stop-color:#E2BE64"/>
	<stop  offset="0.5361" style="stop-color:#F2DB86"/>
	<stop  offset="0.8607" style="stop-color:#E4C168"/>
	<stop  offset="0.9842" style="stop-color:#C5A85A"/>
</radialGradient>
<path style="fill:url(#SVGID_00000093863464745194346560000009687310838138032026_);" d="M374,61.7c-0.1,0-0.1,0-0.2,0
	c-0.5,0-1-0.2-1.4-0.7c-1.7-1.6-2.9-6-2.9-11.2c0,0,0,0,0,0c0,0,0,0,0,0c0,0,0,0,0-0.1c0-6.6,1.9-12,4.3-12c2.4,0,4.3,5.3,4.3,11.8
	c0,0,0,0.1,0,0.1c0.1-0.9,0.2-1.8,0.2-2.7c0-6.4-2-16.1-7.2-20.6c-0.3,0.9-0.8,2.3-1.4,3.8c-2.8,7.2-8.7,19.3-17.4,21.7
	c-1,0.3-2,0.5-3,0.5c-11.9,0-16.3-4.3-17.5-5.9l-2.5,1.6l10.6,23.8c0.2-3.2,11.6-6.3,28.1-6.9c1.6-0.1,4.9-0.1,4.9-0.1L374,61.7z
	 M366.4,61.2l-6.8-0.6l-0.6-0.1c-0.6-0.1-1.3-0.3-1.7-0.8c-0.6-0.6-0.8-1.4-0.8-2.1c0-0.8,0.3-1.5,0.8-2.1c0.8-0.8,1.9-1,2.9-0.7
	c-0.1-0.2-0.1-0.5-0.1-0.7c0-0.8,0.2-1.6,0.8-2.2c1.1-1.1,2.9-1.1,4.1,0c0.5,0.5,0.8,1.2,0.8,1.9l0,0.8L366.4,61.2L366.4,61.2
	L366.4,61.2z"/>
<g>
	
		<linearGradient id="SVGID_00000067211325478395242560000002518616588997576327_" gradientUnits="userSpaceOnUse" x1="176.7128" y1="-30.9347" x2="184.7566" y2="-30.9347" gradientTransform="matrix(0.7988 -0.6016 0.6016 0.7988 202.242 176.4897)">
		<stop  offset="0.1288" style="stop-color:#F9E693"/>
		<stop  offset="1" style="stop-color:#E2BE64"/>
	</linearGradient>
	<path style="fill:url(#SVGID_00000067211325478395242560000002518616588997576327_);" d="M325,39.1L325,39.1
		c-1.7,1.4-1.8,4.3-0.1,6.5c1.7,2.2,4.4,2.8,6.1,1.5l0,0c1.7-1.4,1.8-4.3,0.1-6.5C329.5,38.4,326.8,37.7,325,39.1z M330.2,46
		L330.2,46c-1.2,0.9-3.1,0.3-4.3-1.3c-1.2-1.6-1.3-3.7-0.1-4.6c1.1-0.9,3-0.3,4.3,1.3C331.3,43,331.3,45.1,330.2,46z"/>
	<path class="st1" d="M326,40.4c-1,0.8-1,2.7,0.1,4.2c1.1,1.4,2.8,2,3.9,1.2l0,0c1-0.8,0.9-2.7-0.1-4.1
		C328.8,40.1,327,39.6,326,40.4z"/>
	
		<linearGradient id="SVGID_00000145033385792191941880000015333610879592352687_" gradientUnits="userSpaceOnUse" x1="176.3118" y1="-30.9347" x2="185.1533" y2="-30.9347" gradientTransform="matrix(0.7988 -0.6016 0.6016 0.7988 202.242 176.4897)">
		<stop  offset="0" style="stop-color:#E2BE64"/>
		<stop  offset="0.8712" style="stop-color:#F9E693"/>
	</linearGradient>
	<path style="fill:url(#SVGID_00000145033385792191941880000015333610879592352687_);" d="M324.7,38.7
		C324.7,38.7,324.7,38.7,324.7,38.7c-1.9,1.5-2,4.7-0.2,7.1c1.8,2.4,4.8,3.1,6.7,1.6l0,0c1.9-1.5,2-4.7,0.2-7.1
		C329.6,37.9,326.7,37.2,324.7,38.7z M331,47L331,47c-1.8,1.4-4.5,0.7-6.2-1.5c-1.7-2.2-1.6-5.1,0.1-6.5l0,0
		c1.8-1.4,4.5-0.7,6.2,1.5C332.8,42.7,332.8,45.6,331,47z"/>
	<path class="st14" d="M325,39.1L325,39.1c-1.7,1.4-1.8,4.3-0.1,6.5c1.7,2.2,4.4,2.8,6.1,1.5l0,0c1.7-1.4,1.8-4.3,0.1-6.5
		C329.5,38.4,326.8,37.7,325,39.1z M330.2,46L330.2,46c-1.2,0.9-3.1,0.3-4.3-1.3c-1.2-1.6-1.3-3.7-0.1-4.6c1.1-0.9,3-0.3,4.3,1.3
		C331.3,43,331.3,45.1,330.2,46z"/>
</g>
</svg>
