<svg xmlns="http://www.w3.org/2000/svg" viewBox="0 0 32 32"><g id="center_alignment" data-name="center alignment"><path d="M23,12a1,1,0,0,0-1-1H10a1,1,0,0,0,0,2H22A1,1,0,0,0,23,12Z"/><path d="M21,16a1,1,0,0,0-1-1H12a1,1,0,0,0,0,2h8A1,1,0,0,0,21,16Z"/><path d="M14,19a1,1,0,0,0,0,2h4a1,1,0,0,0,0-2Z"/><path d="M23.43,2H8.57A3.57,3.57,0,0,0,5,5.57V22a1,1,0,0,0,2,0V5.57A1.58,1.58,0,0,1,8.57,4H23.43A1.58,1.58,0,0,1,25,5.57V26.43A1.58,1.58,0,0,1,23.43,28H8.57A1.58,1.58,0,0,1,7,26.43a1,1,0,0,0-2,0A3.57,3.57,0,0,0,8.57,30H23.43A3.57,3.57,0,0,0,27,26.43V5.57A3.57,3.57,0,0,0,23.43,2Z"/></g></svg>