<svg id="Layer_1" data-name="Layer 1" xmlns="http://www.w3.org/2000/svg" viewBox="0 0 100 100"><title>contact</title><path d="M89.94,72.43a39.42,39.42,0,0,0-20.35-26,26.86,26.86,0,0,0-.78-36.25A26.3,26.3,0,0,0,50.17,2H49.7A26.81,26.81,0,0,0,30,46.63,39.45,39.45,0,0,0,10.09,72.11a15.2,15.2,0,0,0,2.62,13.64C21.19,96.61,42.86,97.86,49.3,98h1.6c19.83,0,31.92-6.35,36.3-11.86A15.33,15.33,0,0,0,89.94,72.43ZM49.71,8h.36a20.31,20.31,0,0,1,14.4,6.32A20.81,20.81,0,0,1,49.34,49.51a20.33,20.33,0,0,1-14.41-6.32A20.81,20.81,0,0,1,49.71,8ZM82.5,82.41c-5.43,6.84-21,9.76-33.09,9.58h0c-12-.17-26.71-3.26-31.92-9.93a9.19,9.19,0,0,1-1.54-8.45A33.27,33.27,0,0,1,34.84,50.94a26.24,26.24,0,0,0,14.39,4.57h.47a26.24,26.24,0,0,0,15-4.71A33.48,33.48,0,0,1,84.12,73.89,9.27,9.27,0,0,1,82.5,82.41Z" fill="#fff"  /></svg>