<svg id="Layer_1" data-name="Layer 1" xmlns="http://www.w3.org/2000/svg" viewBox="0 0 100 100"><title>date</title><path d="M90.09,11.13H70.84V5a3,3,0,0,0-6,0v6.13H34.68V5a3,3,0,0,0-6,0v6.13H9.91A7.42,7.42,0,0,0,2.5,18.54V90.59A7.43,7.43,0,0,0,9.91,98H90.09a7.43,7.43,0,0,0,7.41-7.41V18.54A7.42,7.42,0,0,0,90.09,11.13Zm-80.18,6H28.68v8.45a3,3,0,0,0,6,0V17.13H64.84v8.45a3,3,0,0,0,6,0V17.13H90.09a1.41,1.41,0,0,1,1.41,1.41V36.42H8.5V18.54A1.41,1.41,0,0,1,9.91,17.13ZM90.09,92H9.91A1.41,1.41,0,0,1,8.5,90.59V42.42h83V90.59A1.41,1.41,0,0,1,90.09,92Z" fill="#7c7c7c"/></svg>