<svg version="1.1" id="Layer_1" xmlns="http://www.w3.org/2000/svg" xmlns:xlink="http://www.w3.org/1999/xlink" x="0px" y="0px"
	 viewBox="0 0 30 20" style="enable-background:new 0 0 30 20;" xml:space="preserve" fill={props.fill}>
<style >
	.st0{fill:"#fff";}
</style>
<g id="Layer_2_00000121265785260869653340000007298198516546455454_">
	<g id="_20_Communication_Line_Icon_Set">
		<g id="Message">
			<path class="st0" d="M25.5,20H4.5C2,20,0,18,0,15.5V4.5C0,2,2,0,4.5,0h20.9C28,0,30,2,30,4.5v10.9C30,18,28,20,25.5,20z M4.5,2
				C3.1,2,2,3.1,2,4.5l0,0v10.9C2,16.9,3.1,18,4.5,18l0,0h20.9c1.4,0,2.5-1.1,2.5-2.5v0V4.5C28,3.1,26.9,2,25.5,2c0,0,0,0,0,0H4.5z"
			
				/>
			<path class="st0" d="M15,11.6c-0.2,0-0.4-0.1-0.6-0.2l-13-8.6C1,2.6,0.8,2,1,1.5s0.9-0.7,1.4-0.4c0.1,0,0.1,0.1,0.2,0.1L15,9.4
				l12.5-8.2c0.4-0.3,1.1-0.3,1.4,0.2s0.3,1.1-0.2,1.4c0,0-0.1,0.1-0.2,0.1l-13,8.6C15.4,11.5,15.2,11.6,15,11.6z"/>
		</g>
	</g>
</g>
</svg>
