<?xml version="1.0" encoding="utf-8"?>
<!-- Generator: Adobe Illustrator 25.2.3, SVG Export Plug-In . SVG Version: 6.00 Build 0)  -->
<svg version="1.1" id="Layer_1" xmlns="http://www.w3.org/2000/svg" xmlns:xlink="http://www.w3.org/1999/xlink" x="0px" y="0px"
	 viewBox="0 0 500 500" enable-background="new 0 0 500 500" xml:space="preserve">
<path d="M250,95.1c-85.4,0-154.9,69.5-154.9,154.9S164.6,404.9,250,404.9S404.9,335.4,404.9,250S335.4,95.1,250,95.1z M250,389.7
	c-77,0-139.7-62.7-139.7-139.7S173,110.3,250,110.3c77.1,0,139.7,62.7,139.7,139.7S327,389.7,250,389.7z M495.8,210.8l-44.4-21.9
	c-4-13.2-9.3-25.9-15.7-38l15.9-46.9c0.9-2.7,0.2-5.8-1.8-7.8l-45.9-45.9c-2-2-5.1-2.7-7.8-1.8l-46.9,15.9
	c-12.1-6.5-24.8-11.7-38-15.7L289.2,4.2C288,1.6,285.3,0,282.5,0h-64.9c-2.9,0-5.5,1.6-6.8,4.2l-21.9,44.4c-13.2,4-25.9,9.3-38,15.7
	L104,48.5c-2.7-0.9-5.7-0.2-7.8,1.8L50.3,96.2c-2,2-2.7,5.1-1.8,7.8l15.9,46.9c-6.5,12.1-11.7,24.8-15.7,38L4.2,210.8
	C1.6,212,0,214.7,0,217.5v64.9c0,2.9,1.6,5.5,4.2,6.8l44.4,21.9c4,13.2,9.3,25.9,15.7,38L48.5,396c-0.9,2.7-0.2,5.7,1.8,7.8
	l45.9,45.9c2,2,5.1,2.7,7.8,1.8l46.9-15.9c12.1,6.5,24.8,11.7,38,15.7l21.9,44.4c1.3,2.6,3.9,4.2,6.8,4.2h64.9
	c2.9,0,5.5-1.6,6.8-4.2l21.9-44.4c13.2-4,25.9-9.3,38-15.7l46.9,15.9c2.7,0.9,5.8,0.2,7.8-1.8l45.9-45.9c2-2,2.7-5.1,1.8-7.8
	l-15.9-46.9c6.5-12.1,11.7-24.8,15.7-38l44.4-21.9c2.6-1.3,4.2-3.9,4.2-6.8v-64.9C500,214.7,498.4,212,495.8,210.8z M484.9,277.7
	l-41.5,20.5c-2.6,0.6-4.8,2.6-5.6,5.3c-4.1,14.5-9.9,28.4-17.2,41.4c-1.3,2.3-1.2,5.1,0,7.3l15,44.2l-39.2,39.2l-43.9-14.9
	c-2.3-1.4-5.2-1.5-7.6-0.2c-13,7.3-27,13-41.4,17.2c-2.6,0.7-4.4,2.7-5.1,5.2l-20.6,41.8h-55.5l-20.5-41.5c-0.6-2.6-2.6-4.8-5.3-5.6
	c-14.5-4.1-28.4-9.9-41.4-17.2c-2.3-1.3-5.1-1.2-7.3,0l-44.2,15l-39.2-39.2l14.9-43.9c1.4-2.3,1.5-5.2,0.1-7.6
	c-7.3-13.1-13-27-17.2-41.4c-0.7-2.6-2.7-4.4-5.2-5.1l-41.8-20.6v-55.5l41.7-20.6c2.5-0.7,4.6-2.6,5.3-5.2
	c4.1-14.4,9.9-28.3,17.1-41.3c1.3-2.3,1.2-4.9,0.1-7l-15.1-44.5l39.2-39.2l44.3,15c2.2,1.2,5,1.2,7.3,0c13-7.2,26.9-13,41.3-17.1
	c2.5-0.7,4.4-2.6,5.1-5l20.7-42h55.5L298.4,57c0.7,2.4,2.6,4.4,5.2,5.2c14.4,4.1,28.3,9.8,41.3,17.1c2.2,1.2,4.8,1.2,6.9,0.2
	l44.7-15.2l39.2,39.2l-14.9,44.1c-1.3,2.2-1.4,5.1-0.1,7.5c7.3,13,13,26.9,17.1,41.3c0.7,2.6,2.8,4.5,5.3,5.2l41.8,20.6V277.7z
	 M297.4,261.7c3.6,4.8,5.5,11.2,5.5,19.1c0,7.4-2.1,14.1-6.3,19.9c-4.1,5.8-10.2,10.3-18,13.3c-5.8,2.3-12.8,3.7-20.9,4.2v28.1
	c0,4.3-3.5,7.8-7.8,7.8c-4.3,0-7.8-3.5-7.8-7.8v-28.2c-7.9-0.6-15.5-2.2-22.6-4.7c-8.1-2.8-14.8-6.4-19.7-10.6
	c-3-2.5-3.7-6.8-1.6-10.2c1.2-1.9,3-3.2,5.2-3.6c2.2-0.4,4.4,0.1,6.2,1.4c4,3,9.1,5.7,15.2,8.1c7.6,3.1,16.3,4.6,25.7,4.6
	c13.2,0,22.7-2.2,28.2-6.5c5.3-4.1,7.9-9.3,7.9-15.9c0-4.6-1.2-8.2-3.5-10.7c-2.6-2.8-6.2-5-10.7-6.6c-4.8-1.7-10.2-3.1-16.1-4.1
	c-6.2-1.1-12.5-2.3-18.7-3.7c-6.5-1.4-12.4-3.4-17.7-5.9c-5.7-2.6-10.3-6.4-13.8-11.2c-3.6-4.9-5.4-11.4-5.4-19.3
	c0-6.8,1.9-13.2,5.7-18.9c3.8-5.7,9.5-10.3,17-13.8c5.3-2.4,11.6-4,18.8-4.7v-28.3c0-4.3,3.5-7.8,7.8-7.8c4.3,0,7.8,3.5,7.8,7.8
	v28.1c6.1,0.5,12.2,1.6,18.3,3.5c6.7,2,12.5,4.6,17.1,7.7c3.5,2.4,4.5,7.3,2.2,10.9c-1.2,1.8-3,3-5,3.4c-2.1,0.4-4.2,0-6-1.2
	c-4-2.7-8.5-4.8-13.5-6.2c-6.4-1.8-13.1-2.8-19.8-2.8c-12.2,0-21,2.2-26.3,6.6c-5.1,4.3-7.6,9.4-7.6,15.5c0,4.8,1.2,8.7,3.6,11.4
	c2.6,3,6.2,5.3,10.6,6.8c4.8,1.7,10.3,3.1,16.2,4.2c6.1,1.1,12.4,2.4,18.5,3.7c6.4,1.4,12.3,3.3,17.6,5.7
	C289.3,253.5,293.9,257.1,297.4,261.7L297.4,261.7z"/>
</svg>
