<svg xmlns="http://www.w3.org/2000/svg" viewBox="0 0 30 23.67"><defs><style>.cls-1{fill:#212121;}</style></defs><g id="Layer_2" data-name="Layer 2"><g id="_20_Communication_Line_Icon_Set" data-name="20 Communication Line Icon Set"><g id="Paperplane"><path class="cls-1" d="M10,23.67a1,1,0,0,1-1-1v-9a1,1,0,0,1,.45-.83L28.45.17a1,1,0,0,1,1.38.28,1,1,0,0,1-.28,1.38L11,14.2v6.51l3.92-2.85a1,1,0,0,1,1.39.22,1,1,0,0,1-.22,1.4l-5.5,4A1.06,1.06,0,0,1,10,23.67Z"/><path class="cls-1" d="M20.9,22.33a1,1,0,0,1-.56-.17L.43,8.49A1,1,0,0,1,.77,6.7L28.77,0a1,1,0,0,1,1,.32,1,1,0,0,1,.17,1L21.83,21.7a1,1,0,0,1-.64.59A.92.92,0,0,1,20.9,22.33ZM3.42,8.12l17,11.68L27.36,2.42Z"/></g></g></g></svg>