<svg id="Layer_1" data-name="Layer 1" xmlns="http://www.w3.org/2000/svg" viewBox="0 0 100 100"><title>heart</title><path d="M50,91.5a3,3,0,0,1-2.08-.84L10.3,54.37a26.71,26.71,0,0,1,0-38.7,26,26,0,0,1,35.84,0L50,19.39l3.85-3.72a26.05,26.05,0,0,1,35.85,0h0a26.71,26.71,0,0,1,0,38.7L52.08,90.66A3,3,0,0,1,50,91.5Zm-21.78-77A19.78,19.78,0,0,0,14.46,20a20.71,20.71,0,0,0,0,30.06L50,84.33,85.54,50.05a20.71,20.71,0,0,0,0-30.06A20,20,0,0,0,58,20l-5.94,5.73a3,3,0,0,1-4.17,0L42,20A19.78,19.78,0,0,0,28.22,14.5Z" fill="#000000" /></svg>