<?xml version="1.0" encoding="utf-8"?>
<!-- Generator: Adobe Illustrator 26.1.0, SVG Export Plug-In . SVG Version: 6.00 Build 0)  -->
<svg version="1.1" id="Layer_1" xmlns="http://www.w3.org/2000/svg" xmlns:xlink="http://www.w3.org/1999/xlink" x="0px" y="0px"
	 viewBox="0 0 32 32" style="enable-background:new 0 0 32 32;" xml:space="preserve">
<style type="text/css">
	.st0-username{fill:none;stroke:#525252;stroke-width:2;stroke-linecap:round;}
</style>
<g id="ic-user-interface-password">
	<path class="st0-username" d="M6.8,10.2h18.4c1.3,0,2.3,1,2.3,2.3v13.8c0,1.3-1,2.3-2.3,2.3H6.8c-1.3,0-2.3-1-2.3-2.3V12.5
		C4.5,11.3,5.5,10.2,6.8,10.2z"/>
	<path class="st0-username" d="M11.2,10.2V7.9c0-2.5,2-4.6,4.6-4.6c0,0,0,0,0,0l0,0c2.5,0,4.6,2.1,4.6,4.6l0,0v2.3"/>
	<circle class="st0-username" cx="15.8" cy="18.3" r="2.3"/>
	<line class="st0-username" x1="15.8" y1="20.6" x2="15.8" y2="22.9"/>
</g>
</svg>
