<?xml version="1.0" encoding="utf-8"?>
<!-- Generator: Adobe Illustrator 26.1.0, SVG Export Plug-In . SVG Version: 6.00 Build 0)  -->
<svg version="1.1" id="Layer_1" xmlns="http://www.w3.org/2000/svg" xmlns:xlink="http://www.w3.org/1999/xlink" x="0px" y="0px"
	 viewBox="0 0 30 30" style="enable-background:new 0 0 30 30;" xml:space="preserve">
<style type="text/css">
	.st0{fill:#FFFFFF;}
	.st1{fill:#000;}
</style>
<circle class="st0" cx="15.3" cy="15" r="14.1"/>
<path class="st1" d="M12,7.3c-2.5,0-4.5,2-4.5,4.5v6.5c0,2.5,2,4.5,4.5,4.5h6.5c2.5,0,4.5-2,4.5-4.5v-6.5c0-2.5-2-4.5-4.5-4.5H12z
	 M19.8,9.8c0.4,0,0.6,0.3,0.6,0.6s-0.3,0.6-0.6,0.6s-0.6-0.3-0.6-0.6S19.4,9.8,19.8,9.8z M15.3,11.1c2.1,0,3.9,1.7,3.9,3.9
	s-1.7,3.9-3.9,3.9s-3.9-1.7-3.9-3.9S13.1,11.1,15.3,11.1z M15.3,12.4c-1.4,0-2.6,1.2-2.6,2.6s1.2,2.6,2.6,2.6s2.6-1.2,2.6-2.6
	S16.7,12.4,15.3,12.4z"/>
</svg>
