<svg  fill="#525252" id="Layer_1" data-name="Layer 1" xmlns="http://www.w3.org/2000/svg" viewBox="0 0 100 100"><title>location</title><path d="M50,98a3,3,0,0,1-1.67-.51A121.8,121.8,0,0,1,29.56,81.2C16.91,67.73,10.5,54.48,10.5,41.82a39.5,39.5,0,1,1,79,0c0,12.66-6.41,25.91-19.06,39.38A121.8,121.8,0,0,1,51.67,97.49,3,3,0,0,1,50,98ZM50,8A33.7,33.7,0,0,0,16.5,41.82C16.5,65.14,43,86.17,50,91.31c7-5.15,33.5-26.21,33.5-49.49A33.7,33.7,0,0,0,50,8Z"/><path d="M50,57.09A15.27,15.27,0,1,1,65.17,41.82,15.24,15.24,0,0,1,50,57.09Zm0-24.54a9.27,9.27,0,1,0,9.17,9.27A9.24,9.24,0,0,0,50,32.55Z"/></svg>