<?xml version="1.0" encoding="utf-8"?>
<!-- Generator: Adobe Illustrator 26.1.0, SVG Export Plug-In . SVG Version: 6.00 Build 0)  -->
<svg version="1.1" id="Layer_1" xmlns="http://www.w3.org/2000/svg" xmlns:xlink="http://www.w3.org/1999/xlink" x="0px" y="0px"
	 viewBox="0 0 100 100" style="enable-background:new 0 0 100 100;" xml:space="preserve">
<path d="M50,2.3C28.2,2.3,10.5,20,10.5,41.8c0,12.7,6.4,25.9,19.1,39.4c5.7,6.1,12,11.5,18.8,16.3c0.5,0.3,1.1,0.5,1.7,0.5
	c0.6,0,1.2-0.2,1.7-0.5c6.8-4.8,13.1-10.2,18.8-16.3c12.7-13.5,19.1-26.7,19.1-39.4C89.5,20,71.8,2.3,50,2.3z M50,57.1
	c-8.4,0.1-15.3-6.7-15.4-15.2c-0.1-8.4,6.7-15.3,15.2-15.4s15.3,6.7,15.4,15.2c0,0,0,0.1,0,0.1C65.2,50.2,58.4,57.1,50,57.1z"/>
</svg>
