<svg width="18" height="17" viewBox="0 0 18 17" fill="none" xmlns="http://www.w3.org/2000/svg"><path fill-rule="evenodd" clip-rule="evenodd" d="M6.1875 0.6875C4.54647 0.6875 2.97266 1.3394 1.81228 2.49978C0.651895 3.66016 0 5.23397 0 6.875C0 8.51603 0.651895 10.0898 1.81228 11.2502C2.97266 12.4106 4.54647 13.0625 6.1875 13.0625V16.5135L10.082 13.2681L9.15796 12.5737L7.3125 14.1115V11.9375H6.1875C4.84484 11.9375 3.55717 11.4041 2.60777 10.4547C1.65837 9.50533 1.125 8.21766 1.125 6.875C1.125 5.53234 1.65837 4.24467 2.60777 3.29527C3.55717 2.34587 4.84484 1.8125 6.1875 1.8125H11.8125C13.1552 1.8125 14.4428 2.34587 15.3922 3.29527C16.3416 4.24467 16.875 5.53234 16.875 6.875C16.875 8.21766 16.3416 9.50533 15.3922 10.4547C15.2889 10.5581 15.1815 10.6565 15.0705 10.7498L15.075 10.764H16.6251C17.5106 9.66827 18 8.29686 18 6.875C18 5.23397 17.3481 3.66016 16.1877 2.49978C15.0273 1.3394 13.4535 0.6875 11.8125 0.6875H6.1875ZM14.0052 14.2497L13.5 13.8721L12.9948 14.2497L12.3297 14.747L12.5938 13.9193L12.777 13.3453L12.2934 12.9857L11.5489 12.4321H12.45H13.0674L13.2542 11.8437L13.5 11.0695L13.7458 11.8437L13.9326 12.4321H14.55H15.4511L14.7066 12.9857L14.223 13.3453L14.4062 13.9193L14.6703 14.747L14.0052 14.2497ZM10.725 17L11.8882 16.1305L13.5 14.9255L15.1118 16.1305L16.275 17L15.8335 15.6165L15.21 13.6628L16.8652 12.4321L18 11.5884H16.5859H14.55L13.9426 9.67537L13.5 8.28125L13.0574 9.67536L12.45 11.5884H10.4141H9L10.1348 12.4321L11.79 13.6628L11.1665 15.6165L10.725 17Z" fill="#"></path></svg>