<?xml version="1.0" encoding="utf-8"?>
<!-- Generator: Adobe Illustrator 26.1.0, SVG Export Plug-In . SVG Version: 6.00 Build 0)  -->
<svg version="1.1" id="Layer_1" xmlns="http://www.w3.org/2000/svg" xmlns:xlink="http://www.w3.org/1999/xlink" x="0px" y="0px"
	 viewBox="0 0 24 24" style="enable-background:new 0 0 24 24;" xml:space="preserve">
<style type="text/css">
	.st0{stroke:#fff;stroke-width:0.2;stroke-miterlimit:10;}
</style>
<path class="st0" d="M5.8,3C4.2,3,3,4.2,3,5.8v11c0,1.5,1.2,2.8,2.8,2.8H9l2.5,2.3c0.3,0.3,0.7,0.3,1,0l2.5-2.3h3.2
	c1.5,0,2.8-1.2,2.8-2.8v-11C21,4.2,19.8,3,18.2,3H5.8z M5.8,4.5h12.5c0.7,0,1.2,0.6,1.2,1.2v11c0,0.7-0.6,1.2-1.2,1.2h-3.5
	c-0.2,0-0.4,0.1-0.5,0.2l-2.2,2l-2.2-2C9.7,18.1,9.5,18,9.3,18H5.8c-0.7,0-1.2-0.6-1.2-1.2v-11C4.5,5.1,5.1,4.5,5.8,4.5z M12,6.5
	c-0.6,0-1,0.4-1,1s0.4,1,1,1s1-0.4,1-1S12.6,6.5,12,6.5z M12,10c-0.4,0-0.7,0.3-0.7,0.8v5c0,0.4,0.3,0.8,0.7,0.8
	c0.4,0,0.8-0.3,0.8-0.7c0,0,0,0,0,0v-5C12.8,10.3,12.4,10,12,10C12,10,12,10,12,10z"/>
</svg>
