<?xml version="1.0" encoding="utf-8"?>
<!-- Generator: Adobe Illustrator 26.1.0, SVG Export Plug-In . SVG Version: 6.00 Build 0)  -->
<svg  version="1.1" id="Layer_1" xmlns="http://www.w3.org/2000/svg" xmlns:xlink="http://www.w3.org/1999/xlink" x="0px" y="0px"
	 viewBox="0 0 50 50" style="enable-background:new 0 0 50 50;" xml:space="preserve">
<style type="text/css">
	.st0{fill:#FFFFFF;}
</style>
<path  class="st0" d="M25,2C12.3,2,2,12.3,2,25c0,9.9,6.3,18.3,15,21.6c-0.3-2.3-0.2-5.9,0.2-7.7c0.4-1.7,2.5-10.7,2.5-10.7
	s-0.6-1.3-0.6-3.2c0-3,1.7-5.2,3.9-5.2c1.8,0,2.7,1.4,2.7,3c0,1.8-1.2,4.6-1.8,7.2c-0.5,2.1,1.1,3.9,3.2,3.9c3.8,0,6.8-4,6.8-9.8
	c0-5.1-3.7-8.7-9-8.7c-6.1,0-9.7,4.6-9.7,9.3c0,1.8,0.7,3.8,1.6,4.9c0.2,0.2,0.2,0.4,0.1,0.6c-0.2,0.7-0.5,2.1-0.6,2.4
	c-0.1,0.4-0.3,0.5-0.7,0.3c-2.7-1.3-4.4-5.2-4.4-8.3c0-6.8,4.9-13,14.2-13c7.5,0,13.3,5.3,13.3,12.4c0,7.4-4.7,13.4-11.2,13.4
	c-2.2,0-4.2-1.1-4.9-2.5c0,0-1.1,4.1-1.3,5.1c-0.5,1.7-2.4,5.3-3.4,7c2.2,0.7,4.6,1.1,7.1,1.1c12.7,0,23-10.3,23-23
	C48,12.3,37.7,2,25,2z"/>
</svg>
