<?xml version="1.0" encoding="utf-8"?>
<!-- Generator: Adobe Illustrator 27.0.0, SVG Export Plug-In . SVG Version: 6.00 Build 0)  -->
<svg version="1.1" id="Layer_1" xmlns="http://www.w3.org/2000/svg" xmlns:xlink="http://www.w3.org/1999/xlink" x="0px" y="0px"
	 viewBox="0 0 16 14.6" style="enable-background:new 0 0 16 14.6;" xml:space="preserve">
<path d="M8.4,1C8,1,7.7,1.2,7.4,1.4l-5.9,6C0.9,8,0.9,9,1.4,9.5l4,4c0.6,0.6,1.5,0.6,2.1,0l6-5.9C13.8,7.3,14,7,14,6.6V2.5
	C14,1.7,13.3,1,12.5,1H8.4z M8.4,2h4.1C12.8,2,13,2.2,13,2.5v4.1c0,0.1-0.1,0.3-0.1,0.4l-6,5.9c-0.2,0.2-0.5,0.2-0.7,0l-4-4
	c-0.2-0.2-0.2-0.5,0-0.7l5.9-6C8.2,2.1,8.3,2,8.4,2z M11.5,3C11.2,3,11,3.2,11,3.5S11.2,4,11.5,4S12,3.8,12,3.5S11.8,3,11.5,3z"/>
</svg>
