<svg xmlns="http://www.w3.org/2000/svg" viewBox="0 0 30 27.22" ><defs></defs><g id="Layer_2" data-name="Layer 2"><g id="_20_Communication_Line_Icon_Set" data-name="20 Communication Line Icon Set"><g id="Shout"><path class="cls-1" d="M9,17.22H3.75A3.75,3.75,0,0,1,0,13.47V10A3.75,3.75,0,0,1,3.75,6.22H9a1,1,0,0,1,1,1v9A1,1,0,0,1,9,17.22Zm-5.25-9A1.75,1.75,0,0,0,2,10v3.5a1.76,1.76,0,0,0,1.75,1.75H8v-7Z"/><path class="cls-1" d="M26,23.18a1,1,0,0,1-.33-.06l-17-6A1,1,0,0,1,8,16.22v-9a1,1,0,0,1,.66-.94l17-6.22a1,1,0,0,1,.91.12A1,1,0,0,1,27,1V22.18a1,1,0,0,1-.42.81A1,1,0,0,1,26,23.18ZM10,15.51l15,5.26V2.43L10,7.92Z"/><path class="cls-1" d="M7,27.22H3a1,1,0,0,1-1-1v-10a1,1,0,0,1,1-1H7a1,1,0,0,1,1,1v10A1,1,0,0,1,7,27.22Zm-3-2H6v-8H4Z"/><path class="cls-1" d="M26,15.7a1,1,0,0,1,0-2,2.11,2.11,0,0,0,0-4.22,1,1,0,0,1,0-2,4.11,4.11,0,0,1,0,8.22Z"/><path class="cls-1" d="M15.06,9a1,1,0,0,1-.34-1.94l4.87-1.78a1,1,0,1,1,.69,1.88L15.41,8.94A1.07,1.07,0,0,1,15.06,9Z"/></g></g></g></svg>