<svg id="Layer_1" data-name="Layer 1" xmlns="http://www.w3.org/2000/svg" viewBox="0 0 100 100"><title>cart</title><path d="M36.64,89.5A11.47,11.47,0,1,1,47.93,78,11.4,11.4,0,0,1,36.64,89.5Zm0-16.94A5.47,5.47,0,1,0,41.93,78,5.4,5.4,0,0,0,36.64,72.56Z"/><path d="M78.3,89.5A11.47,11.47,0,1,1,89.59,78,11.4,11.4,0,0,1,78.3,89.5Zm0-16.94A5.47,5.47,0,1,0,83.59,78,5.4,5.4,0,0,0,78.3,72.56Z"/><path d="M81.42,62.57H30.22a3,3,0,0,1-2.86-2.09L15,21.77l-.06-.2c-.29-1.08-2.09-6.51-9.14-4.68a3,3,0,0,1-1.5-5.81c4.06-1.05,7.63-.68,10.6,1.1A13.69,13.69,0,0,1,20.69,20L32.4,56.57H79.3L90.77,23.86H29a3,3,0,0,1,0-6H95a3,3,0,0,1,2.83,4L84.25,60.56A3,3,0,0,1,81.42,62.57Z"/></svg>