<?xml version="1.0" encoding="utf-8"?>
<!-- Generator: Adobe Illustrator 26.1.0, SVG Export Plug-In . SVG Version: 6.00 Build 0)  -->
<svg version="1.1" id="OBJECT" xmlns="http://www.w3.org/2000/svg" xmlns:xlink="http://www.w3.org/1999/xlink" x="0px" y="0px"
	 viewBox="0 0 32 32" style="enable-background:new 0 0 32 32;" xml:space="preserve">
<path  d="M31,12.5c0-1.9-1.5-3.5-3.5-3.5c-1.9,0-3.5,1.5-3.5,3.5c0,0.4,0.1,0.9,0.2,1.3L21.3,16l-2.5-4.2c1.6-1.6,1.6-4.1,0-5.7
	c-1.6-1.6-4.1-1.6-5.7,0s-1.6,4.1,0,5.7c0,0,0,0,0,0L10.7,16l-3-2.3c0.7-1.8-0.3-3.8-2.1-4.5s-3.8,0.3-4.5,2.1s0.3,3.8,2.1,4.5
	C3.5,15.9,3.7,16,4,16l1,6.1V25c0,1.1,0.9,2,2,2h18c1.1,0,2-0.9,2-2v-2.9l1-6.1C29.7,15.8,31,14.3,31,12.5z M16,6.4
	c1.3,0,2.4,1.1,2.4,2.4s-1.1,2.4-2.4,2.4c-1.3,0-2.4-1.1-2.4-2.4S14.6,6.4,16,6.4z M11,18.3h0.2c0.3-0.1,0.3,0,0.4-0.2l3.1-5.2
	c0.7,0.2,2.1,0.2,2.8,0l3,5.1c0.1,0.2,0.3,0.2,0.6,0.3h0.2c0.2,0,0.4-0.1,0.6-0.2l3.5-3c0.2,0.1,1.1,0.4,1.3,0.5L25.8,21L6.2,21
	l-0.8-5.4c0.2-0.1,1.2-0.4,1.4-0.5l3.6,3C10.6,18.2,10.8,18.3,11,18.3z M2.4,12.5c0-1.1,0.9-2,2-2s2,0.9,2,2s-0.9,2-2,2
	S2.4,13.6,2.4,12.5z M6.4,25v-2.5l19.3,0V25L6.4,25z M27.5,14.2c-1,0-1.9-0.8-1.9-1.8s0.8-1.8,1.9-1.8c1,0,1.9,0.8,1.9,1.8
	S28.6,14.2,27.5,14.2z"/>
</svg>
