<svg xmlns="http://www.w3.org/2000/svg" aria-labelledby="ListWedding52" role="img" class="zui-svg-icon" viewBox="0 0 24 24" color="black" fill="none" style="width: 24px; height: 24px;"><title id="ListWedding52">ListWedding</title><path stroke="currentColor" stroke-linecap="round" stroke-linejoin="round" stroke-width="2" d="M12 6h8M12 12h8M12 18h8"></path><path fill="currentColor" d="M9.122 8.047a1 1 0 0 0-1.407-1.421l1.407 1.42Zm-3.619 2.176-.703.71a1 1 0 0 0 1.407 0l-.704-.71ZM3.292 6.626a1 1 0 0 0-1.408 1.42l1.408-1.42ZM1.89 8.053A1 1 0 0 0 3.286 6.62L1.89 8.053Zm3.612-3.269-.802.597a1 1 0 0 0 1.602.004l-.8-.6Zm2.215 1.841a1 1 0 1 0 1.401 1.427L7.718 6.625Zm-.003 0L4.8 9.514l1.407 1.42 2.915-2.886-1.407-1.421ZM6.207 9.514 3.292 6.626l-1.408 1.42L4.8 10.935l1.407-1.421ZM3.286 6.62a.943.943 0 0 1-.243-.957l-1.91-.593a2.943 2.943 0 0 0 .758 2.983L3.286 6.62Zm-.243-.957a.943.943 0 0 1 .742-.65l-.336-1.971A2.943 2.943 0 0 0 1.133 5.07l1.91.593Zm.742-.65c.35-.06.704.083.916.368l1.605-1.193a2.943 2.943 0 0 0-2.857-1.146l.336 1.971Zm2.518.372a.943.943 0 0 1 .914-.363l.34-1.97a2.943 2.943 0 0 0-2.853 1.131l1.599 1.202Zm.914-.363c.349.06.635.311.74.649l1.91-.596a2.943 2.943 0 0 0-2.31-2.023l-.34 1.97Zm.74.649a.943.943 0 0 1-.24.954L9.12 8.052a2.943 2.943 0 0 0 .747-2.977l-1.909.596ZM9.122 18.047a1 1 0 1 0-1.407-1.421l1.407 1.42Zm-3.619 2.176-.703.71a1 1 0 0 0 1.407 0l-.704-.71Zm-2.211-3.597a1 1 0 1 0-1.408 1.42l1.408-1.42ZM1.89 18.053a1 1 0 1 0 1.395-1.433L1.89 18.053Zm3.612-3.269-.802.597a1 1 0 0 0 1.602.004l-.8-.6Zm2.215 1.841a1 1 0 1 0 1.401 1.427l-1.401-1.427Zm-.003 0L4.8 19.514l1.407 1.42 2.915-2.886-1.407-1.421Zm-1.508 2.888-2.915-2.887-1.408 1.42L4.8 20.935l1.407-1.421ZM3.286 16.62a.943.943 0 0 1-.243-.957l-1.91-.594a2.943 2.943 0 0 0 .758 2.984l1.395-1.433Zm-.243-.957a.943.943 0 0 1 .742-.65l-.336-1.971a2.944 2.944 0 0 0-2.316 2.027l1.91.594Zm.742-.65c.35-.06.704.083.916.368l1.605-1.193a2.943 2.943 0 0 0-2.857-1.146l.336 1.972Zm2.518.372a.943.943 0 0 1 .914-.362l.34-1.971a2.943 2.943 0 0 0-2.853 1.131l1.599 1.202Zm.914-.362c.349.06.635.31.74.648l1.91-.596a2.943 2.943 0 0 0-2.31-2.023l-.34 1.97Zm.74.648a.943.943 0 0 1-.24.954l1.402 1.427a2.943 2.943 0 0 0 .747-2.977l-1.909.596Z"></path></svg>