<svg version="1.1" id="Layer_1" data-name="Layer 1" xmlns="http://www.w3.org/2000/svg" xmlns:xlink="http://www.w3.org/1999/xlink" viewBox="0 0 595.63 244.51"><defs><style>.cls-1{fill:#fff;}.cls-2{fill:url(#linear-gradient);}.cls-3{fill:url(#linear-gradient-2);}</style><linearGradient id="linear-gradient" x1="327.7" y1="46.01" x2="435.05" y2="46.01" gradientUnits="userSpaceOnUse"><stop offset="0.01" stop-color="#f0b53e"/><stop offset="0.12" stop-color="#fed84e"/><stop offset="0.22" stop-color="#f5c748"/><stop offset="0.59" stop-color="#fdd523"/><stop offset="0.81" stop-color="#d6a93d"/><stop offset="0.88" stop-color="#af8330"/><stop offset="0.89" stop-color="#d6a93d"/><stop offset="0.94" stop-color="#d6a93d"/><stop offset="1" stop-color="#a9872f"/></linearGradient><linearGradient id="linear-gradient-2" x1="342.55" y1="87.7" x2="420.21" y2="87.7" gradientUnits="userSpaceOnUse"><stop offset="0.01" stop-color="#f0b53e"/><stop offset="0.22" stop-color="#f5c748"/><stop offset="0.45" stop-color="#bf9235"/><stop offset="0.59" stop-color="#e9bb44"/><stop offset="0.71" stop-color="#c89b38"/><stop offset="0.81" stop-color="#d6a93d"/><stop offset="0.88" stop-color="#af8330"/><stop offset="0.89" stop-color="#d6a93d"/><stop offset="0.94" stop-color="#d6a93d"/></linearGradient></defs><path class="cls-1" d="M593,247.5a25.74,25.74,0,0,1-7.71-10.29l-8.53-19.35L514.44,71.14h-5.3L455,199.36q-5.83,13.8-6.66,15.84-8.52,21.63-14.56,28.36t-18.24,8.61q-11.15-.22-15.3-3.24-4.47-3.27-5.49-10t-1-28.55V119.78q0-18.25.91-25.87c-2.7-1.33-7.47-2.7-14.23-2.7-7,0-11.8,1.45-14.45,2.81q.86,7.55.85,25.76v90.59q0,23.16-1.24,29.5t-5.83,9.33q-4.61,3-16.55,3h-5.5v6.26H470.76V252.2q-8.92,0-14.63-4.3t-5.7-12.6q0-7.76,10.71-33.24L466,190.35h70.81l14.26,34.19q6.31,14.85,6.32,17.85c0,3.9-1.58,6.52-4.74,7.83s-9.23,2-18.2,2v6.26h73.07V252.2Q597.86,251.24,593,247.5ZM468.59,184.22l32.86-78.75,32.83,78.75Z" transform="translate(-11.92 -13.95)"/><path class="cls-2" d="M435.05,46.47A4.37,4.37,0,0,0,433.5,43h0c-2.09-1.61-5.21-.86-7.14,1.68A6.5,6.5,0,0,0,425,48.82a4.86,4.86,0,0,0,.17,1.27c-1.27,1.61-5.49,5.56-16.55,5.56s-21.23-18.26-24.83-25.71h.33l.21-.13.2-.12.79-.47-.27-.75.29-.16c1.67-.92,2.54-1.54,2.64-4.55v-.09c-.16-3.84-3.12-6.79-4.93-8.26a15.21,15.21,0,0,0-1.58-1.17L381,14l-.47.29c-.24.15-6,3.77-6.29,9.12v.14a5.18,5.18,0,0,0,2.3,4.32c.19.16.4.31.62.47l-.25.74.21.14v0l1,.64C375.64,37.08,368,56,355.74,56c-12,0-16.67-4.25-18.1-6a5.34,5.34,0,0,0,.15-1.21,6.62,6.62,0,0,0-1.39-4.14c-1.93-2.54-5-3.3-7.14-1.69h0a4.37,4.37,0,0,0-1.55,3.48,6.58,6.58,0,0,0,1.39,4.13,5.83,5.83,0,0,0,5.16,2.5l10.2,23,.77,2,.06-.09,0,.09a.78.78,0,0,1,0-.22c1.95-3,7.1-5.71,35.36-6.37s34.56,6.2,34.95,6.66v0h0l12.38-25a5.66,5.66,0,0,0,5.58-2.41A6.64,6.64,0,0,0,435.05,46.47Zm-104.47,2.9c-1.27-1.67-1.35-3.87-.14-4.82s3.2-.31,4.48,1.37,1.34,3.86.17,4.8l0,0C333.87,51.66,331.85,51,330.58,49.37ZM376.32,23.6c.25-3.42,3.61-6.15,4.86-7,.2.13.44.32.71.54,1.54,1.28,3.82,3.64,4,6.48-.06,1.86-.28,2-1.59,2.71-.32.17-.68.37-1.09.62l-.7.44.12.34h-3l.06-.18-.22-.13,0,0-.71-.44a14.44,14.44,0,0,1-1.2-.81A3,3,0,0,1,376.32,23.6Zm.52,29c0-.26,0-.53,0-.79s0-.62.05-.93v-.07a28.53,28.53,0,0,1,.45-3.43c.82-3.25,2.17-5.38,3.71-5.38,2.5,0,4.52,5.66,4.52,12.64a33.87,33.87,0,0,1-.31,4.64c-.76,4-2.25,6.74-4,6.74-2.48,0-4.49-5.66-4.49-12.64C376.82,53.14,376.83,52.88,376.84,52.62Zm22,11.23a2.94,2.94,0,0,1-1.83.89l-.61.08-7.05.58.58-7v-.24a3.1,3.1,0,0,1,.74-1.27,3,3,0,0,1,4.27,0,3,3,0,0,1,.84,1.88h0a3.16,3.16,0,0,1-.1,1.26,3,3,0,0,1,3.07.75,3.05,3.05,0,0,1,.84,1.7A3.16,3.16,0,0,1,398.86,63.85Zm-32.31,1-.6-.08a2.94,2.94,0,0,1-1.83-.89,3.12,3.12,0,0,1-.84-2.53,2.67,2.67,0,0,1,.43-.57,3,3,0,0,1,3.07-.75,3.14,3.14,0,0,1,.74-3.14,3,3,0,0,1,4.27,0,3.12,3.12,0,0,1,.88,2l0,.8.47,5.72Zm61.14-14,0,0c-1.18-.94-1.1-3.13.17-4.8s3.29-2.29,4.48-1.37,1.13,3.15-.14,4.82S428.89,51.72,427.69,50.8Z" transform="translate(-11.92 -13.95)"/><path class="cls-3" d="M420,87.38c0-.07,0-.13,0-.2-.54-5.44-15.5-9.88-34.6-10.45h-.1l-.95,0-1.12,0h-2a128.88,128.88,0,0,0-15.78.93c-13.23,1.65-22.55,5.31-23,9.58a3.1,3.1,0,0,0,.1.53,4.59,4.59,0,0,1,1.11-1.85,5.24,5.24,0,0,0-.88,1.66c0,.09-.07.18-.1.27s0,.14-.07.2a5.4,5.4,0,0,0-.16.78c.3,3.24,4.77,6.16,11.81,8.26.72.21,1.45.42,2.22.61-.37-.18-.71-.36-1-.55.33.19.67.37,1,.55,1.54.4,3.18.75,4.91,1.07,0,0,.94-.08,1-.83s-1.12-1.06-1.12-1.06c-5.49-1.39-8.92-3.35-8.95-5.53.08-.13.15-.27.24-.39,1.24-1.57,3.73-3,7.13-4.14,5.28-1.57,12.95-2.17,21.5-2.17,11.26,0,21,1.33,25.76,3.83.16.08.84.48,1,.57a7.7,7.7,0,0,1,2.09,1.94,1.86,1.86,0,0,1,0,.34c0,2.21-3.54,4.21-9.18,5.61a.78.78,0,0,0-.82.9.91.91,0,0,0,.79,1q3.09-.57,5.78-1.29c.34-.17.66-.35,1-.53-.3.18-.62.36-1,.53.72-.19,1.41-.39,2.08-.6a33.54,33.54,0,0,0,6.58-2.74c2.91-1.62,4.64-3.47,4.82-5.44,0-.06,0-.12,0-.19s0-.13,0-.19A4.14,4.14,0,0,0,420,87.38Zm-10.45,8.16c.12-.11.24-.21.34-.32C409.79,95.33,409.67,95.43,409.55,95.54Zm-54.94,1c.2.14.42.27.64.4C355,96.79,354.81,96.66,354.61,96.52Zm-1.09-.85-.38-.35Zm.78.62a4.41,4.41,0,0,1-.49-.36A4.41,4.41,0,0,0,354.3,96.29Zm-1.63-5.68-.19.29h0a2.32,2.32,0,0,1,.19-.31c1.24-1.58,3.73-3,7.13-4.15.94-.27,2-.51,3.05-.73-1.08.24-2.11.49-3.05.77C356.4,87.62,353.91,89,352.67,90.61Zm54.39-2.48a22.61,22.61,0,0,0-3.13-1.3,19.53,19.53,0,0,1,3.13,1.27c.16.08.84.48,1,.57a6.89,6.89,0,0,1,.91.67c-.28-.22-.58-.43-.91-.64C407.9,88.61,407.22,88.21,407.06,88.13Zm4,4.91h0Zm-.68,1.57-.26.33Zm.61-1.24c0,.1-.07.21-.11.32C410.93,93.58,411,93.47,411,93.37Zm-.24.63c-.05.11-.12.21-.18.32C410.64,94.21,410.71,94.11,410.76,94Zm-1.49,1.8a5,5,0,0,1-.43.34A5,5,0,0,0,409.27,95.8Zm-.73.57c-.18.13-.37.25-.57.37C408.17,96.62,408.36,96.5,408.54,96.37Z" transform="translate(-11.92 -13.95)"/><path class="cls-1" d="M341.51,208q0-20.05-15.38-33.42t-47.08-15.69l.37-.06h.23q26.1-3.83,39.14-14.63t13.12-28.84q0-43.53-76.44-43.52h-.33l-9.63.3h0l-7.92.24-17.32.54-30.66.82V80h3.59q14.2,0,18.42,2.45t5.52,9q1.31,6.54,1.31,29v89.91c0,3.38,0,6.47-.06,9.31-.11,7.71-.36,13.46-.76,17.22q-.18,1.78-.42,3a14.45,14.45,0,0,1-3.74,7.62,12.78,12.78,0,0,1-2.09,1.71,20.32,20.32,0,0,1-8.21,2.51c-.52.07-1,.13-1.6.18q-7.84-1.14-12-4.39a25.74,25.74,0,0,1-7.71-10.29l-8.53-19.35L111,71.14h-5.3L51.54,199.36q-5.82,13.8-6.66,15.84-8.52,21.63-14.56,28.36t-18.4,8.64v6.26H67.27V252.2q-8.94,0-14.63-4.3t-5.7-12.6q0-7.76,10.71-33.24l4.89-11.71h70.81l14.26,34.19q6.31,14.85,6.32,17.85c0,3.9-1.58,6.52-4.74,7.83s-9.22,2-18.2,2v6.26H260.75q27.33,0,43.61-3.88a48.44,48.44,0,0,0,26.72-16.51q10.43-12.62,10.43-30.08h0ZM65.1,184.22,98,105.47l32.84,78.75ZM245.37,78.77c3.75-.27,7.42-.41,11-.41a107.45,107.45,0,0,1,21,1.68,33.25,33.25,0,0,1,8.05,2.6,28.86,28.86,0,0,1,12.77,12.2q4.26,7.91,4.26,22.34,0,20.72-10.85,30t-40.52,9.27c-1.51,0-3.38,0-5.58-.14h-.14Zm0,84.19q5.49-.27,10.44-.27,31.31,0,43.74,10.83T312,207.23q0,22.35-11,33.51t-33,11.17q-12.36,0-16.55-3.67c-2.79-2.46-4.51-6-5.15-10.77-.05-.35-.09-.73-.14-1.15,0,0,0-.11,0-.16,0-.37-.08-.77-.11-1.19a2.28,2.28,0,0,1,0-.26c0-.43-.07-.89-.1-1.38,0-.06,0-.13,0-.2q-.17-2.59-.28-6.16v-.13c0-.76-.05-1.55-.07-2.38a.76.76,0,0,0,0-.15c0-.86,0-1.76-.06-2.69h0c-.09-4.88-.14-10.71-.14-17.53Z" transform="translate(-11.92 -13.95)"/></svg>